<svg id="Layer_1" data-name="Layer 1" xmlns="http://www.w3.org/2000/svg" viewBox="0 0 916.91 217.64"><defs><style>.cls-1{fill:#f1f2f2;}.cls-2,.cls-3{fill:#a7a9ac;}.cls-2{stroke:#a7a9ac;stroke-linecap:round;stroke-miterlimit:10;stroke-width:3px;}.cls-4{fill:#fff;}</style></defs><path class="cls-1" d="M303.38,156.41h5.2v13h14.47v-13h5.28v30.8h-5.28V173.79H308.58v13.42h-5.2Z" transform="translate(-53.47 -116.78)"/><path class="cls-1" d="M353.28,187.21h-4.53l-.31-2.2a7.72,7.72,0,0,1-2.62,1.84,8.11,8.11,0,0,1-3.28.66,8.79,8.79,0,0,1-4.44-1.07,7.1,7.1,0,0,1-2.9-3.17,11.73,11.73,0,0,1-1-5.17V165.21h5v12.18a6.8,6.8,0,0,0,1.1,4.21,4,4,0,0,0,3.38,1.43,4.38,4.38,0,0,0,3.46-1.43,6.26,6.26,0,0,0,1.25-4.21V165.21h4.93Z" transform="translate(-53.47 -116.78)"/><path class="cls-1" d="M359.13,165.21h4.49l.31,2.11a8.2,8.2,0,0,1,2.64-1.78,8.09,8.09,0,0,1,3.25-.64,8.55,8.55,0,0,1,4,.9,6.91,6.91,0,0,1,2.82,2.62,7.89,7.89,0,0,1,3.17-2.6,9.92,9.92,0,0,1,4.22-.92A9,9,0,0,1,388.5,166a7.28,7.28,0,0,1,3,3.16,11.47,11.47,0,0,1,1.06,5.22v12.85H387.6V175.06a6.44,6.44,0,0,0-1.19-4.22,4.22,4.22,0,0,0-3.43-1.41,4.52,4.52,0,0,0-3.56,1.43,6.15,6.15,0,0,0-1.28,4.25v12.1h-5V175.06a6.89,6.89,0,0,0-1.08-4.22,3.92,3.92,0,0,0-3.32-1.41,4.27,4.27,0,0,0-3.48,1.43,6.53,6.53,0,0,0-1.19,4.25v12.1h-5Z" transform="translate(-53.47 -116.78)"/><path class="cls-1" d="M411.18,187.21l-.44-2.69a7.27,7.27,0,0,1-2.51,2.16,8.43,8.43,0,0,1-3.87.75,9.48,9.48,0,0,1-4-.77,6,6,0,0,1-2.57-2.16,5.79,5.79,0,0,1-.9-3.23,6.08,6.08,0,0,1,2-4.65,10.17,10.17,0,0,1,6-2.26l5.76-.71V172a2.58,2.58,0,0,0-.92-1.91,4.26,4.26,0,0,0-2.95-.86,5.46,5.46,0,0,0-3.06.86,4.24,4.24,0,0,0-1.74,2.57l-4.31-1.58a7.84,7.84,0,0,1,3.32-4.53,10.79,10.79,0,0,1,6.05-1.63q4.28,0,6.43,2.15a7.45,7.45,0,0,1,2.15,5.5v14.66Zm-.44-9.68-5.28.7a4.49,4.49,0,0,0-2.51.92,2.36,2.36,0,0,0-.83,1.81,2.28,2.28,0,0,0,.81,1.74,3.26,3.26,0,0,0,2.22.72,6.76,6.76,0,0,0,3.11-.64,4.08,4.08,0,0,0,1.87-1.89,6.87,6.87,0,0,0,.61-3.06Z" transform="translate(-53.47 -116.78)"/><path class="cls-1" d="M421.26,165.21h4.49l.35,2.15a7.93,7.93,0,0,1,2.64-1.8,8.24,8.24,0,0,1,3.3-.66,8.69,8.69,0,0,1,4.42,1.08,7.09,7.09,0,0,1,2.88,3.16,11.91,11.91,0,0,1,1,5.22v12.85h-5V175.06a6.82,6.82,0,0,0-1.1-4.22,4,4,0,0,0-3.35-1.41,4.26,4.26,0,0,0-3.47,1.43,6.53,6.53,0,0,0-1.19,4.25v12.1h-5Z" transform="translate(-53.47 -116.78)"/><path class="cls-1" d="M463.67,187.21h-5.19v-30.8h5.81l10.38,23.93,10.39-23.93h5.81v30.8h-5.24V166.39l-9,20.82h-4l-9-20.82Z" transform="translate(-53.47 -116.78)"/><path class="cls-1" d="M506.88,187.51a11.56,11.56,0,0,1-5.7-1.38,10,10,0,0,1-3.89-3.92,13.28,13.28,0,0,1,0-12,10.14,10.14,0,0,1,4-3.94,12.44,12.44,0,0,1,11.39,0,10.46,10.46,0,0,1,4,3.92,11.47,11.47,0,0,1,1.49,6,11.59,11.59,0,0,1-1.51,6,10.56,10.56,0,0,1-4.1,3.94A11.94,11.94,0,0,1,506.88,187.51Zm0-4.44a6,6,0,0,0,2.92-.75,5.8,5.8,0,0,0,2.27-2.26,7.69,7.69,0,0,0,.88-3.9,7.77,7.77,0,0,0-.84-3.8,5.48,5.48,0,0,0-2.2-2.27,6,6,0,0,0-2.94-.75,5.68,5.68,0,0,0-2.86.75,5.19,5.19,0,0,0-2.09,2.27,8.5,8.5,0,0,0-.77,3.89,8.74,8.74,0,0,0,.74,3.81,5.14,5.14,0,0,0,2.05,2.26A5.58,5.58,0,0,0,506.84,183.07Z" transform="translate(-53.47 -116.78)"/><path class="cls-1" d="M523.73,165.21v-6.16h5v6.16h5.15v4.35h-5.15v9.77a4,4,0,0,0,.75,2.77,2.71,2.71,0,0,0,2,.84,14.37,14.37,0,0,0,2.44-.13V187a12.7,12.7,0,0,1-3.72.24,7.73,7.73,0,0,1-3.3-1,5.87,5.87,0,0,1-2.31-2.53,9.82,9.82,0,0,1-.84-4.4v-9.77h-3.12v-4.35Z" transform="translate(-53.47 -116.78)"/><path class="cls-1" d="M548,187.51a11.56,11.56,0,0,1-5.7-1.38,9.85,9.85,0,0,1-3.89-3.92,13.28,13.28,0,0,1,0-12,10.12,10.12,0,0,1,4-3.94,12.46,12.46,0,0,1,11.4,0,10.44,10.44,0,0,1,4,3.92,11.47,11.47,0,0,1,1.5,6,11.59,11.59,0,0,1-1.52,6,10.46,10.46,0,0,1-4.09,3.94A12,12,0,0,1,548,187.51Zm-.05-4.44a6.06,6.06,0,0,0,2.93-.75,5.86,5.86,0,0,0,2.27-2.26,9,9,0,0,0,0-7.7,5.54,5.54,0,0,0-2.2-2.27,6,6,0,0,0-3-.75,5.71,5.71,0,0,0-2.86.75,5.19,5.19,0,0,0-2.09,2.27,10.13,10.13,0,0,0,0,7.7,5.14,5.14,0,0,0,2.05,2.26A5.55,5.55,0,0,0,547.93,183.07Z" transform="translate(-53.47 -116.78)"/><path class="cls-1" d="M564,165.21h4.49l.4,2.77a8.14,8.14,0,0,1,2.07-1.85,7.16,7.16,0,0,1,2.57-1,6.28,6.28,0,0,1,2.79.09v4.57a5.16,5.16,0,0,0-2.44-.2,6,6,0,0,0-2.37.95,5.45,5.45,0,0,0-1.83,2.16,7.69,7.69,0,0,0-.71,3.47v11.05h-5Z" transform="translate(-53.47 -116.78)"/><path class="cls-1" d="M617.72,156.41v30.8h-5.37l-14.3-22.58v22.58h-5.19v-30.8h5.32l14.3,22.48V156.41Z" transform="translate(-53.47 -116.78)"/><path class="cls-1" d="M633.78,187.51a11.26,11.26,0,0,1-5.79-1.45,10,10,0,0,1-3.87-4.05,12.42,12.42,0,0,1-1.39-6,11.77,11.77,0,0,1,1.37-5.72,10.26,10.26,0,0,1,9.24-5.41,10.91,10.91,0,0,1,5.54,1.36,9.85,9.85,0,0,1,3.74,3.81,11.39,11.39,0,0,1,1.36,5.65,11.09,11.09,0,0,1-.06,1.12c0,.4-.1.82-.16,1.26H628.14a5.76,5.76,0,0,0,1,2.68,5.32,5.32,0,0,0,2,1.72,5.92,5.92,0,0,0,2.77.61,6.9,6.9,0,0,0,3.28-.77,4.4,4.4,0,0,0,2-2l4.36,1.45a9.93,9.93,0,0,1-3.89,4.16A11.28,11.28,0,0,1,633.78,187.51Zm4.7-13.46a4.44,4.44,0,0,0-.7-2.46,5,5,0,0,0-1.85-1.74,5.08,5.08,0,0,0-2.55-.64,4.66,4.66,0,0,0-2.35.62,5.56,5.56,0,0,0-1.83,1.69,6.27,6.27,0,0,0-1,2.53Z" transform="translate(-53.47 -116.78)"/><path class="cls-1" d="M667.44,187.21H662.9l-.3-2.2a7.82,7.82,0,0,1-2.62,1.84,8.15,8.15,0,0,1-3.28.66,8.79,8.79,0,0,1-4.44-1.07,7.17,7.17,0,0,1-2.91-3.17,11.88,11.88,0,0,1-1-5.17V165.21h5v12.18a6.86,6.86,0,0,0,1.1,4.21A4,4,0,0,0,657.8,183a4.34,4.34,0,0,0,3.45-1.43,6.21,6.21,0,0,0,1.26-4.21V165.21h4.93Z" transform="translate(-53.47 -116.78)"/><path class="cls-1" d="M673.29,165.21h4.49l.39,2.77a8.49,8.49,0,0,1,2.07-1.85,7.23,7.23,0,0,1,2.57-1,6.32,6.32,0,0,1,2.8.09v4.57a5.17,5.17,0,0,0-2.44-.2,6,6,0,0,0-2.38.95,5.45,5.45,0,0,0-1.83,2.16,7.69,7.69,0,0,0-.7,3.47v11.05h-5Z" transform="translate(-53.47 -116.78)"/><path class="cls-1" d="M698.89,187.51a11.5,11.5,0,0,1-5.69-1.38,9.94,9.94,0,0,1-3.9-3.92,13.24,13.24,0,0,1,.05-12,10.05,10.05,0,0,1,4-3.94,12.44,12.44,0,0,1,11.39,0,10.46,10.46,0,0,1,4,3.92,11.47,11.47,0,0,1,1.5,6,11.59,11.59,0,0,1-1.52,6,10.53,10.53,0,0,1-4.09,3.94A12,12,0,0,1,698.89,187.51Zm0-4.44a6.08,6.08,0,0,0,2.93-.75,5.77,5.77,0,0,0,2.26-2.26,7.69,7.69,0,0,0,.88-3.9,7.88,7.88,0,0,0-.83-3.8,5.54,5.54,0,0,0-2.2-2.27,6,6,0,0,0-2.95-.75,5.68,5.68,0,0,0-2.86.75,5.19,5.19,0,0,0-2.09,2.27,10.13,10.13,0,0,0,0,7.7,5.12,5.12,0,0,0,2,2.26A5.58,5.58,0,0,0,698.85,183.07Z" transform="translate(-53.47 -116.78)"/><path class="cls-1" d="M719.27,184l.61-.13V196h-5v-30.8h4.49l.35,2.72a9,9,0,0,1,2.88-2.15,9.45,9.45,0,0,1,4.25-.88,9.29,9.29,0,0,1,5.08,1.41,9.65,9.65,0,0,1,3.48,3.93,14.81,14.81,0,0,1,0,11.91,9.64,9.64,0,0,1-3.46,4,9.25,9.25,0,0,1-5.1,1.4,9.7,9.7,0,0,1-4.6-1A8.28,8.28,0,0,1,719.27,184Zm12.14-7.74a7.35,7.35,0,0,0-1.61-4.93,5.19,5.19,0,0,0-4.15-1.89,5.53,5.53,0,0,0-2.91.79,5.6,5.6,0,0,0-2.09,2.29,9.4,9.4,0,0,0,0,7.45,5.48,5.48,0,0,0,2.09,2.31,5.54,5.54,0,0,0,2.91.8,5.17,5.17,0,0,0,4.15-1.9A7.34,7.34,0,0,0,731.41,176.21Z" transform="translate(-53.47 -116.78)"/><path class="cls-1" d="M741.35,155.53h5v11.7a7.86,7.86,0,0,1,2.59-1.69,9,9,0,0,1,3.48-.64,8.54,8.54,0,0,1,4.31,1.08,7.07,7.07,0,0,1,2.9,3.16,11.9,11.9,0,0,1,1,5.22v12.85h-5.2V175a6.66,6.66,0,0,0-1.1-4.18,4,4,0,0,0-3.34-1.41,4.28,4.28,0,0,0-3.48,1.43,6.53,6.53,0,0,0-1.18,4.25v12.1h-5Z" transform="translate(-53.47 -116.78)"/><path class="cls-1" d="M781.17,165.21h5.28L773.52,196h-4.93l4-9.46-8.62-21.34h5.54l5.81,15.57Z" transform="translate(-53.47 -116.78)"/><path class="cls-1" d="M793.36,180.12a3.45,3.45,0,0,0,1,1.89,4.09,4.09,0,0,0,1.69.88,6.56,6.56,0,0,0,1.76.27,4.56,4.56,0,0,0,2.7-.71,2,2,0,0,0,1-1.67,1.63,1.63,0,0,0-.66-1.41,5.31,5.31,0,0,0-1.69-.77L797,178c-.79-.2-1.63-.44-2.51-.7a11.38,11.38,0,0,1-2.5-1.1,6,6,0,0,1-1.94-1.81,4.79,4.79,0,0,1-.75-2.77,5.59,5.59,0,0,1,1.15-3.52,7.59,7.59,0,0,1,3.14-2.35,11,11,0,0,1,4.43-.86,10,10,0,0,1,5.05,1.23,7.28,7.28,0,0,1,3.17,3.61l-4.35,1.45a2.92,2.92,0,0,0-.9-1.1,4,4,0,0,0-1.41-.64,7.16,7.16,0,0,0-1.65-.2,4.64,4.64,0,0,0-2.38.58,1.77,1.77,0,0,0-1,1.58,1.39,1.39,0,0,0,.33,1,2.85,2.85,0,0,0,.91.66,6,6,0,0,0,1.36.46c.53.12,1.08.26,1.67.44.94.26,1.87.55,2.8.86a12.34,12.34,0,0,1,2.55,1.16,5.34,5.34,0,0,1,1.84,1.85,6.16,6.16,0,0,1,.78,2.9,5.8,5.8,0,0,1-1.1,3.44,7.76,7.76,0,0,1-3.13,2.46,11.76,11.76,0,0,1-4.93.92,10.67,10.67,0,0,1-5.54-1.38,7.11,7.11,0,0,1-3.17-4.51Z" transform="translate(-53.47 -116.78)"/><path class="cls-1" d="M814.7,161.86a3.14,3.14,0,0,1-2.29-.92,3,3,0,0,1-.92-2.2,3.14,3.14,0,0,1,.92-2.29,3.1,3.1,0,0,1,2.29-.92,3.06,3.06,0,0,1,2.25.92,3.14,3.14,0,0,1,.92,2.29,3,3,0,0,1-.92,2.2A3.09,3.09,0,0,1,814.7,161.86Zm-2.51,3.35h5v22h-5Z" transform="translate(-53.47 -116.78)"/><path class="cls-1" d="M833.53,187.51a11.56,11.56,0,0,1-5.7-1.38,10,10,0,0,1-3.89-3.92,13.24,13.24,0,0,1,0-12,10.05,10.05,0,0,1,4-3.94,12.44,12.44,0,0,1,11.39,0,10.46,10.46,0,0,1,4,3.92,11.47,11.47,0,0,1,1.5,6,11.59,11.59,0,0,1-1.52,6,10.53,10.53,0,0,1-4.09,3.94A12,12,0,0,1,833.53,187.51Zm0-4.44a6.08,6.08,0,0,0,2.93-.75,5.84,5.84,0,0,0,2.26-2.26,7.69,7.69,0,0,0,.88-3.9,7.88,7.88,0,0,0-.83-3.8,5.6,5.6,0,0,0-2.2-2.27,6,6,0,0,0-2.95-.75,5.68,5.68,0,0,0-2.86.75,5.19,5.19,0,0,0-2.09,2.27,8.5,8.5,0,0,0-.77,3.89,8.59,8.59,0,0,0,.75,3.81,5.12,5.12,0,0,0,2,2.26A5.58,5.58,0,0,0,833.49,183.07Z" transform="translate(-53.47 -116.78)"/><path class="cls-1" d="M849.55,155.53h5v31.68h-5Z" transform="translate(-53.47 -116.78)"/><path class="cls-1" d="M870.14,187.51a11.56,11.56,0,0,1-5.7-1.38,10,10,0,0,1-3.89-3.92,13.28,13.28,0,0,1,0-12,10.14,10.14,0,0,1,4-3.94,12.44,12.44,0,0,1,11.39,0,10.46,10.46,0,0,1,4,3.92,12.69,12.69,0,0,1,0,12,10.46,10.46,0,0,1-4.09,3.94A11.94,11.94,0,0,1,870.14,187.51Zm0-4.44a6,6,0,0,0,2.92-.75,5.8,5.8,0,0,0,2.27-2.26,7.69,7.69,0,0,0,.88-3.9,7.77,7.77,0,0,0-.84-3.8,5.48,5.48,0,0,0-2.2-2.27,6,6,0,0,0-3-.75,5.67,5.67,0,0,0-2.85.75,5.27,5.27,0,0,0-2.1,2.27,10.13,10.13,0,0,0,0,7.7,5.14,5.14,0,0,0,2,2.26A5.56,5.56,0,0,0,870.1,183.07Z" transform="translate(-53.47 -116.78)"/><path class="cls-1" d="M902.26,165.21h4.53V184a11,11,0,0,1-1.87,6.4,12,12,0,0,1-5.34,4.18,21.26,21.26,0,0,1-8.36,1.48l-.8-4.27q5.6-.13,8.47-2.11a6.49,6.49,0,0,0,2.89-5.68v0h.57a8.42,8.42,0,0,1-2.91,2.55,9.19,9.19,0,0,1-4.53,1,9.51,9.51,0,0,1-5.21-1.4,9.61,9.61,0,0,1-3.48-4,14.74,14.74,0,0,1,0-11.88,9.24,9.24,0,0,1,8.69-5.37,9.79,9.79,0,0,1,2.93.42,9.23,9.23,0,0,1,2.37,1.1,7.19,7.19,0,0,1,1.7,1.51Zm-12,11a7.38,7.38,0,0,0,1.59,4.92,5.52,5.52,0,0,0,7.06,1.08,5.75,5.75,0,0,0,2.07-2.35,9.2,9.2,0,0,0,0-7.37,5.6,5.6,0,0,0-2.09-2.31,5.37,5.37,0,0,0-2.82-.79,5.23,5.23,0,0,0-4.22,1.87A7.36,7.36,0,0,0,890.29,176.21Z" transform="translate(-53.47 -116.78)"/><path class="cls-1" d="M927.6,165.21h5.28L920,196H915l4-9.46-8.62-21.34h5.54l5.81,15.57Z" transform="translate(-53.47 -116.78)"/><path class="cls-1" d="M316.19,237.21l-.44-2.69a7.36,7.36,0,0,1-2.51,2.16,8.49,8.49,0,0,1-3.87.75,9.42,9.42,0,0,1-4-.77,6,6,0,0,1-2.58-2.16,5.79,5.79,0,0,1-.9-3.23,6.09,6.09,0,0,1,2-4.65,10.11,10.11,0,0,1,6-2.26l5.77-.71V222a2.56,2.56,0,0,0-.93-1.91,4.23,4.23,0,0,0-2.94-.86,5.41,5.41,0,0,0-3.06.86,4.16,4.16,0,0,0-1.74,2.57l-4.31-1.58a7.75,7.75,0,0,1,3.32-4.53,10.76,10.76,0,0,1,6.05-1.63c2.84,0,5,.72,6.42,2.15a7.46,7.46,0,0,1,2.16,5.5v14.66Zm-.44-9.68-5.28.7a4.46,4.46,0,0,0-2.51.92,2.34,2.34,0,0,0-.84,1.81,2.29,2.29,0,0,0,.82,1.74,3.22,3.22,0,0,0,2.22.72,6.71,6.71,0,0,0,3.1-.64,4,4,0,0,0,1.87-1.89,6.86,6.86,0,0,0,.62-3.06Z" transform="translate(-53.47 -116.78)"/><path class="cls-1" d="M326.26,215.21h4.49l.35,2.15a8.14,8.14,0,0,1,2.64-1.8,8.31,8.31,0,0,1,3.3-.66,8.73,8.73,0,0,1,4.43,1.08,7.2,7.2,0,0,1,2.88,3.16,12.05,12.05,0,0,1,1,5.22v12.85h-5V225.06a6.75,6.75,0,0,0-1.1-4.22,4,4,0,0,0-3.34-1.41,4.28,4.28,0,0,0-3.48,1.43,6.53,6.53,0,0,0-1.18,4.25v12.1h-5Z" transform="translate(-53.47 -116.78)"/><path class="cls-1" d="M367.05,218.46l-.57.13V205.53h5v31.68H367l-.35-2.73a9.5,9.5,0,0,1-2.9,2.15,9.23,9.23,0,0,1-4.18.88,9.15,9.15,0,0,1-8.63-5.36,15,15,0,0,1,0-11.88,9.87,9.87,0,0,1,13.18-4.34A8.49,8.49,0,0,1,367.05,218.46ZM355,226.21a7.38,7.38,0,0,0,1.59,4.92,5.12,5.12,0,0,0,4.14,1.9,5.41,5.41,0,0,0,2.85-.8,5.54,5.54,0,0,0,2.12-2.31,9.13,9.13,0,0,0,0-7.43,5.66,5.66,0,0,0-2.12-2.31,5.4,5.4,0,0,0-2.85-.79,5.14,5.14,0,0,0-4.14,1.89A7.39,7.39,0,0,0,355,226.21Z" transform="translate(-53.47 -116.78)"/><path class="cls-1" d="M414.79,206.41v30.8h-5.37l-14.3-22.58v22.58h-5.19v-30.8h5.33l14.3,22.48V206.41Z" transform="translate(-53.47 -116.78)"/><path class="cls-1" d="M430.85,237.51a11.26,11.26,0,0,1-5.79-1.45,10.13,10.13,0,0,1-3.87-4.05,12.54,12.54,0,0,1-1.38-6,11.77,11.77,0,0,1,1.36-5.72,10.23,10.23,0,0,1,3.79-4,10.36,10.36,0,0,1,5.45-1.45,11,11,0,0,1,5.55,1.36,9.85,9.85,0,0,1,3.74,3.81,11.49,11.49,0,0,1,1.36,5.65,8.86,8.86,0,0,1-.07,1.12q-.06.6-.15,1.26H425.22a5.65,5.65,0,0,0,.95,2.68,5.29,5.29,0,0,0,1.95,1.72,6,6,0,0,0,2.78.61,6.86,6.86,0,0,0,3.27-.77,4.38,4.38,0,0,0,2.05-2l4.36,1.45a9.9,9.9,0,0,1-3.9,4.16A11.26,11.26,0,0,1,430.85,237.51Zm4.71-13.46a4.45,4.45,0,0,0-.71-2.46,5,5,0,0,0-1.84-1.74,5.14,5.14,0,0,0-2.55-.64,4.67,4.67,0,0,0-2.36.62,5.56,5.56,0,0,0-1.83,1.69,6.56,6.56,0,0,0-1,2.53Z" transform="translate(-53.47 -116.78)"/><path class="cls-1" d="M464.51,237.21H460l-.31-2.2a7.72,7.72,0,0,1-2.62,1.84,8.11,8.11,0,0,1-3.28.66,8.79,8.79,0,0,1-4.44-1.07,7.1,7.1,0,0,1-2.9-3.17,11.73,11.73,0,0,1-1-5.17V215.21h5v12.18a6.8,6.8,0,0,0,1.1,4.21,4,4,0,0,0,3.38,1.43,4.38,4.38,0,0,0,3.46-1.43,6.26,6.26,0,0,0,1.25-4.21V215.21h4.93Z" transform="translate(-53.47 -116.78)"/><path class="cls-1" d="M470.36,215.21h4.49l.4,2.77a8.26,8.26,0,0,1,2.06-1.85,7.28,7.28,0,0,1,2.58-1,6.28,6.28,0,0,1,2.79.09v4.57a5.16,5.16,0,0,0-2.44-.2,6,6,0,0,0-2.38.95,5.51,5.51,0,0,0-1.82,2.16,7.69,7.69,0,0,0-.71,3.47v11.05h-5Z" transform="translate(-53.47 -116.78)"/><path class="cls-1" d="M496,237.51a11.56,11.56,0,0,1-5.7-1.38,9.91,9.91,0,0,1-3.89-3.92,13.28,13.28,0,0,1,0-12,10.18,10.18,0,0,1,4-3.94,12.46,12.46,0,0,1,11.4,0,10.46,10.46,0,0,1,4,3.92,12.69,12.69,0,0,1,0,12,10.46,10.46,0,0,1-4.09,3.94A11.94,11.94,0,0,1,496,237.51Zm0-4.44a6,6,0,0,0,2.92-.75,5.8,5.8,0,0,0,2.27-2.26,7.69,7.69,0,0,0,.88-3.9,7.77,7.77,0,0,0-.84-3.8,5.54,5.54,0,0,0-2.2-2.27,6,6,0,0,0-2.95-.75,5.71,5.71,0,0,0-2.86.75,5.25,5.25,0,0,0-2.09,2.27,10.13,10.13,0,0,0,0,7.7,5.14,5.14,0,0,0,2,2.26A5.56,5.56,0,0,0,495.93,233.07Z" transform="translate(-53.47 -116.78)"/><path class="cls-1" d="M512,215.21h4.48l.31,2.11a8.2,8.2,0,0,1,5.9-2.42,8.61,8.61,0,0,1,4,.9,6.94,6.94,0,0,1,2.81,2.62,8,8,0,0,1,3.17-2.6,10,10,0,0,1,4.23-.92,9,9,0,0,1,4.51,1.08,7.39,7.39,0,0,1,3,3.16,11.61,11.61,0,0,1,1,5.22v12.85h-4.93V225.06a6.44,6.44,0,0,0-1.18-4.22,4.26,4.26,0,0,0-3.44-1.41,4.54,4.54,0,0,0-3.56,1.43,6.2,6.2,0,0,0-1.28,4.25v12.1h-5V225.06a6.89,6.89,0,0,0-1.08-4.22,3.91,3.91,0,0,0-3.32-1.41,4.26,4.26,0,0,0-3.47,1.43,6.47,6.47,0,0,0-1.19,4.25v12.1h-5Z" transform="translate(-53.47 -116.78)"/><path class="cls-1" d="M560.74,237.51a11.56,11.56,0,0,1-5.7-1.38,9.85,9.85,0,0,1-3.89-3.92,13.28,13.28,0,0,1,0-12,10.12,10.12,0,0,1,4-3.94,12.46,12.46,0,0,1,11.4,0,10.44,10.44,0,0,1,4,3.92,11.47,11.47,0,0,1,1.5,6,11.59,11.59,0,0,1-1.52,6,10.46,10.46,0,0,1-4.09,3.94A12,12,0,0,1,560.74,237.51Zm0-4.44a6.06,6.06,0,0,0,2.93-.75,5.86,5.86,0,0,0,2.27-2.26,9,9,0,0,0,0-7.7,5.54,5.54,0,0,0-2.2-2.27,6,6,0,0,0-3-.75,5.68,5.68,0,0,0-2.86.75,5.19,5.19,0,0,0-2.09,2.27,10.13,10.13,0,0,0,0,7.7,5.14,5.14,0,0,0,2.05,2.26A5.55,5.55,0,0,0,560.69,233.07Z" transform="translate(-53.47 -116.78)"/><path class="cls-1" d="M592.94,218.46l-.57.13V205.53h5v31.68h-4.53l-.36-2.73a9.5,9.5,0,0,1-2.9,2.15,9.2,9.2,0,0,1-4.18.88,9.13,9.13,0,0,1-8.62-5.36,14.85,14.85,0,0,1,0-11.88A9.86,9.86,0,0,1,590,215.93,8.49,8.49,0,0,1,592.94,218.46Zm-12.05,7.75a7.43,7.43,0,0,0,1.58,4.92,5.13,5.13,0,0,0,4.14,1.9,5.47,5.47,0,0,0,2.86-.8,5.58,5.58,0,0,0,2.11-2.31,9.13,9.13,0,0,0,0-7.43,5.71,5.71,0,0,0-2.11-2.31,5.46,5.46,0,0,0-2.86-.79,5.15,5.15,0,0,0-4.14,1.89A7.44,7.44,0,0,0,580.89,226.21Z" transform="translate(-53.47 -116.78)"/><path class="cls-1" d="M622,237.21h-4.54l-.3-2.2a7.82,7.82,0,0,1-2.62,1.84,8.18,8.18,0,0,1-3.28.66,8.86,8.86,0,0,1-4.45-1.07,7.15,7.15,0,0,1-2.9-3.17,11.88,11.88,0,0,1-1-5.17V215.21h5v12.18a6.86,6.86,0,0,0,1.1,4.21,4,4,0,0,0,3.39,1.43,4.34,4.34,0,0,0,3.45-1.43,6.21,6.21,0,0,0,1.26-4.21V215.21H622Z" transform="translate(-53.47 -116.78)"/><path class="cls-1" d="M627.84,205.53h5v31.68h-5Z" transform="translate(-53.47 -116.78)"/><path class="cls-1" d="M651.73,237.21l-.44-2.69a7.36,7.36,0,0,1-2.51,2.16,8.49,8.49,0,0,1-3.87.75,9.42,9.42,0,0,1-4-.77,6,6,0,0,1-2.57-2.16,5.71,5.71,0,0,1-.91-3.23,6.09,6.09,0,0,1,2-4.65,10.17,10.17,0,0,1,6-2.26l5.76-.71V222a2.58,2.58,0,0,0-.92-1.91,4.26,4.26,0,0,0-3-.86,5.41,5.41,0,0,0-3.06.86,4.16,4.16,0,0,0-1.74,2.57l-4.31-1.58a7.8,7.8,0,0,1,3.32-4.53,10.76,10.76,0,0,1,6-1.63q4.27,0,6.42,2.15a7.46,7.46,0,0,1,2.16,5.5v14.66Zm-.44-9.68-5.28.7a4.46,4.46,0,0,0-2.51.92,2.33,2.33,0,0,0-.83,1.81,2.28,2.28,0,0,0,.81,1.74,3.22,3.22,0,0,0,2.22.72,6.71,6.71,0,0,0,3.1-.64,4,4,0,0,0,1.87-1.89,6.86,6.86,0,0,0,.62-3.06Z" transform="translate(-53.47 -116.78)"/><path class="cls-1" d="M663.26,215.21v-6.16h5v6.16h5.15v4.35h-5.15v9.77a4,4,0,0,0,.75,2.77,2.71,2.71,0,0,0,2,.84,14.32,14.32,0,0,0,2.44-.13V237a12.7,12.7,0,0,1-3.72.24,7.78,7.78,0,0,1-3.3-1,5.87,5.87,0,0,1-2.31-2.53,10,10,0,0,1-.83-4.4v-9.77h-3.13v-4.35Z" transform="translate(-53.47 -116.78)"/><path class="cls-1" d="M680.9,211.86a3.14,3.14,0,0,1-2.29-.92,3,3,0,0,1-.92-2.2,3.14,3.14,0,0,1,.92-2.29,3.1,3.1,0,0,1,2.29-.92,3,3,0,0,1,2.24.92,3.11,3.11,0,0,1,.93,2.29,3,3,0,0,1-.93,2.2A3.06,3.06,0,0,1,680.9,211.86Zm-2.51,3.35h5v22h-5Z" transform="translate(-53.47 -116.78)"/><path class="cls-1" d="M699.73,237.51a11.56,11.56,0,0,1-5.7-1.38,10,10,0,0,1-3.89-3.92,13.28,13.28,0,0,1,0-12,10.14,10.14,0,0,1,4-3.94,12.44,12.44,0,0,1,11.39,0,10.46,10.46,0,0,1,4,3.92,11.47,11.47,0,0,1,1.49,6,11.59,11.59,0,0,1-1.51,6,10.56,10.56,0,0,1-4.1,3.94A11.94,11.94,0,0,1,699.73,237.51Zm0-4.44a6,6,0,0,0,2.92-.75,5.8,5.8,0,0,0,2.27-2.26,7.69,7.69,0,0,0,.88-3.9,7.77,7.77,0,0,0-.84-3.8,5.48,5.48,0,0,0-2.2-2.27,6,6,0,0,0-2.94-.75,5.68,5.68,0,0,0-2.86.75,5.19,5.19,0,0,0-2.09,2.27,8.5,8.5,0,0,0-.77,3.89,8.74,8.74,0,0,0,.74,3.81,5.2,5.2,0,0,0,2.05,2.26A5.58,5.58,0,0,0,699.69,233.07Z" transform="translate(-53.47 -116.78)"/><path class="cls-1" d="M715.75,215.21h4.49l.35,2.15a7.93,7.93,0,0,1,2.64-1.8,8.24,8.24,0,0,1,3.3-.66A8.69,8.69,0,0,1,731,216a7.09,7.09,0,0,1,2.88,3.16,11.91,11.91,0,0,1,1,5.22v12.85h-5V225.06a6.82,6.82,0,0,0-1.1-4.22,4,4,0,0,0-3.35-1.41,4.26,4.26,0,0,0-3.47,1.43,6.53,6.53,0,0,0-1.19,4.25v12.1h-5Z" transform="translate(-53.47 -116.78)"/><path class="cls-1" d="M758.16,206.41v26.44H772v4.36H753v-30.8Z" transform="translate(-53.47 -116.78)"/><path class="cls-1" d="M789.14,237.21l-.44-2.69a7.27,7.27,0,0,1-2.51,2.16,8.49,8.49,0,0,1-3.87.75,9.42,9.42,0,0,1-4-.77,6,6,0,0,1-2.57-2.16,5.71,5.71,0,0,1-.91-3.23,6.09,6.09,0,0,1,2-4.65,10.17,10.17,0,0,1,6-2.26l5.76-.71V222a2.58,2.58,0,0,0-.92-1.91,4.26,4.26,0,0,0-2.95-.86,5.41,5.41,0,0,0-3.06.86,4.16,4.16,0,0,0-1.74,2.57l-4.31-1.58a7.8,7.8,0,0,1,3.32-4.53,10.76,10.76,0,0,1,6.05-1.63q4.27,0,6.42,2.15a7.46,7.46,0,0,1,2.16,5.5v14.66Zm-.44-9.68-5.28.7a4.46,4.46,0,0,0-2.51.92,2.33,2.33,0,0,0-.83,1.81,2.28,2.28,0,0,0,.81,1.74,3.22,3.22,0,0,0,2.22.72,6.71,6.71,0,0,0,3.1-.64,4,4,0,0,0,1.87-1.89,6.86,6.86,0,0,0,.62-3.06Z" transform="translate(-53.47 -116.78)"/><path class="cls-1" d="M803.57,218.46a8.46,8.46,0,0,1,3-2.53,9.72,9.72,0,0,1,4.6-1,9.27,9.27,0,0,1,5.11,1.41,9.69,9.69,0,0,1,3.45,4,14.74,14.74,0,0,1,0,11.88,9.69,9.69,0,0,1-3.45,4,9.26,9.26,0,0,1-5.11,1.4,9.41,9.41,0,0,1-4.24-.88,9,9,0,0,1-2.89-2.15l-.35,2.73h-4.49V205.53h5v13.06Zm12.14,7.75a7.35,7.35,0,0,0-1.6-4.93,5.21,5.21,0,0,0-4.16-1.89,5.45,5.45,0,0,0-5,3.1,9.35,9.35,0,0,0,0,7.43,5.41,5.41,0,0,0,2.09,2.31,5.5,5.5,0,0,0,2.9.8,5.19,5.19,0,0,0,4.16-1.9A7.34,7.34,0,0,0,815.71,226.21Z" transform="translate(-53.47 -116.78)"/><path class="cls-1" d="M835.21,237.51a11.53,11.53,0,0,1-5.7-1.38,9.94,9.94,0,0,1-3.9-3.92,13.32,13.32,0,0,1,0-12,10.12,10.12,0,0,1,4-3.94,12.46,12.46,0,0,1,11.4,0,10.51,10.51,0,0,1,4,3.92,11.47,11.47,0,0,1,1.5,6,11.59,11.59,0,0,1-1.52,6,10.53,10.53,0,0,1-4.09,3.94A12,12,0,0,1,835.21,237.51Zm-.05-4.44a6.08,6.08,0,0,0,2.93-.75,5.77,5.77,0,0,0,2.26-2.26,7.69,7.69,0,0,0,.88-3.9,7.77,7.77,0,0,0-.83-3.8,5.54,5.54,0,0,0-2.2-2.27,6,6,0,0,0-3-.75,5.68,5.68,0,0,0-2.86.75,5.19,5.19,0,0,0-2.09,2.27,10.13,10.13,0,0,0,0,7.7,5.18,5.18,0,0,0,2,2.26A5.58,5.58,0,0,0,835.16,233.07Z" transform="translate(-53.47 -116.78)"/><path class="cls-1" d="M851.22,215.21h4.49l.4,2.77a8.26,8.26,0,0,1,2.06-1.85,7.28,7.28,0,0,1,2.58-1,6.28,6.28,0,0,1,2.79.09v4.57a5.16,5.16,0,0,0-2.44-.2,6,6,0,0,0-2.38.95,5.51,5.51,0,0,0-1.82,2.16,7.69,7.69,0,0,0-.71,3.47v11.05h-5Z" transform="translate(-53.47 -116.78)"/><path class="cls-1" d="M880.57,237.21l-.44-2.69a7.36,7.36,0,0,1-2.51,2.16,8.49,8.49,0,0,1-3.87.75,9.42,9.42,0,0,1-4-.77,6.07,6.07,0,0,1-2.58-2.16,5.79,5.79,0,0,1-.9-3.23,6.09,6.09,0,0,1,2-4.65,10.17,10.17,0,0,1,6-2.26l5.76-.71V222a2.58,2.58,0,0,0-.92-1.91,4.26,4.26,0,0,0-3-.86,5.41,5.41,0,0,0-3.06.86,4.16,4.16,0,0,0-1.74,2.57l-4.31-1.58a7.8,7.8,0,0,1,3.32-4.53,10.76,10.76,0,0,1,6-1.63q4.28,0,6.42,2.15a7.46,7.46,0,0,1,2.16,5.5v14.66Zm-.44-9.68-5.28.7a4.46,4.46,0,0,0-2.51.92,2.34,2.34,0,0,0-.84,1.81,2.29,2.29,0,0,0,.82,1.74,3.22,3.22,0,0,0,2.22.72,6.71,6.71,0,0,0,3.1-.64,4,4,0,0,0,1.87-1.89,6.86,6.86,0,0,0,.62-3.06Z" transform="translate(-53.47 -116.78)"/><path class="cls-1" d="M892.1,215.21v-6.16h5v6.16h5.15v4.35h-5.15v9.77a4,4,0,0,0,.75,2.77,2.71,2.71,0,0,0,2,.84,14.37,14.37,0,0,0,2.44-.13V237a12.7,12.7,0,0,1-3.72.24,7.78,7.78,0,0,1-3.3-1,5.87,5.87,0,0,1-2.31-2.53,10,10,0,0,1-.83-4.4v-9.77H889v-4.35Z" transform="translate(-53.47 -116.78)"/><path class="cls-1" d="M916.34,237.51a11.56,11.56,0,0,1-5.7-1.38,9.91,9.91,0,0,1-3.89-3.92,13.28,13.28,0,0,1,0-12,10.18,10.18,0,0,1,4-3.94,12.46,12.46,0,0,1,11.4,0,10.46,10.46,0,0,1,4,3.92,12.69,12.69,0,0,1,0,12,10.46,10.46,0,0,1-4.09,3.94A11.94,11.94,0,0,1,916.34,237.51Zm0-4.44a6,6,0,0,0,2.92-.75,5.8,5.8,0,0,0,2.27-2.26,9,9,0,0,0,0-7.7,5.54,5.54,0,0,0-2.2-2.27,6,6,0,0,0-3-.75,5.71,5.71,0,0,0-2.86.75,5.25,5.25,0,0,0-2.09,2.27,10.13,10.13,0,0,0,0,7.7,5.14,5.14,0,0,0,2.05,2.26A5.56,5.56,0,0,0,916.3,233.07Z" transform="translate(-53.47 -116.78)"/><path class="cls-1" d="M932.36,215.21h4.48l.4,2.77a8.49,8.49,0,0,1,2.07-1.85,7.23,7.23,0,0,1,2.57-1,6.27,6.27,0,0,1,2.79.09v4.57a5.16,5.16,0,0,0-2.44-.2,6,6,0,0,0-2.37.95,5.45,5.45,0,0,0-1.83,2.16,7.69,7.69,0,0,0-.7,3.47v11.05h-5Z" transform="translate(-53.47 -116.78)"/><path class="cls-1" d="M963.59,215.21h5.29L955.94,246H951l4-9.46-8.62-21.34h5.54l5.81,15.57Z" transform="translate(-53.47 -116.78)"/><line class="cls-2" x1="248.96" y1="139.6" x2="915.41" y2="142.45"/><path class="cls-3" d="M302.42,277.38h3.66v21.7h-3.66Z" transform="translate(-53.47 -116.78)"/><path class="cls-3" d="M310.45,283.58h3.16l.25,1.52a5.64,5.64,0,0,1,1.86-1.27,5.84,5.84,0,0,1,2.33-.47,6.1,6.1,0,0,1,3.11.76,5,5,0,0,1,2,2.23,8.36,8.36,0,0,1,.71,3.68v9.05h-3.53v-8.56a4.87,4.87,0,0,0-.77-3,2.82,2.82,0,0,0-2.36-1,3,3,0,0,0-2.45,1,4.58,4.58,0,0,0-.84,3v8.53h-3.5Z" transform="translate(-53.47 -116.78)"/><path class="cls-3" d="M339.19,285.87l-.41.09v-9.2h3.54v22.32h-3.2l-.24-1.92a6.87,6.87,0,0,1-2.05,1.51,6.44,6.44,0,0,1-2.94.62,6.44,6.44,0,0,1-6.08-3.78,10.5,10.5,0,0,1,0-8.37,6.44,6.44,0,0,1,6.08-3.78,6.55,6.55,0,0,1,3.2.73A6.1,6.1,0,0,1,339.19,285.87Zm-8.5,5.46a5.21,5.21,0,0,0,1.12,3.47,3.6,3.6,0,0,0,2.91,1.33,3.78,3.78,0,0,0,2-.56,4,4,0,0,0,1.49-1.62,5.67,5.67,0,0,0,.55-2.62,5.61,5.61,0,0,0-.55-2.62,4.07,4.07,0,0,0-1.49-1.63,3.87,3.87,0,0,0-2-.56,3.61,3.61,0,0,0-2.91,1.34A5.17,5.17,0,0,0,330.69,291.33Z" transform="translate(-53.47 -116.78)"/><path class="cls-3" d="M348.67,281.22a2.21,2.21,0,0,1-1.61-.65,2.12,2.12,0,0,1-.65-1.55,2.19,2.19,0,0,1,.65-1.61,2.17,2.17,0,0,1,1.61-.65,2.12,2.12,0,0,1,1.58.65,2.16,2.16,0,0,1,.65,1.61,2.09,2.09,0,0,1-.65,1.55A2.16,2.16,0,0,1,348.67,281.22Zm-1.76,2.36h3.5v15.5h-3.5Z" transform="translate(-53.47 -116.78)"/><path class="cls-3" d="M364.27,299.08l-.31-1.89a5.32,5.32,0,0,1-1.77,1.52,6,6,0,0,1-2.73.52,6.68,6.68,0,0,1-2.79-.54,4.19,4.19,0,0,1-1.81-1.52,4,4,0,0,1-.64-2.28,4.28,4.28,0,0,1,1.43-3.27A7.08,7.08,0,0,1,359.9,290l4.06-.5v-1.18a1.85,1.85,0,0,0-.65-1.35,3,3,0,0,0-2.08-.6,3.85,3.85,0,0,0-2.16.6,3,3,0,0,0-1.22,1.82l-3-1.12a5.49,5.49,0,0,1,2.34-3.19,7.58,7.58,0,0,1,4.26-1.15,6.15,6.15,0,0,1,4.53,1.52,5.24,5.24,0,0,1,1.52,3.87v10.33Zm-.31-6.82-3.72.49a3.14,3.14,0,0,0-1.77.65,1.68,1.68,0,0,0-.59,1.28,1.59,1.59,0,0,0,.57,1.22,2.3,2.3,0,0,0,1.57.51,4.8,4.8,0,0,0,2.19-.45,2.91,2.91,0,0,0,1.31-1.33,4.86,4.86,0,0,0,.44-2.16Z" transform="translate(-53.47 -116.78)"/><path class="cls-3" d="M371.36,283.58h3.17l.24,1.52a5.64,5.64,0,0,1,1.86-1.27,5.88,5.88,0,0,1,2.33-.47,6,6,0,0,1,3.11.76,5.09,5.09,0,0,1,2,2.23,8.5,8.5,0,0,1,.71,3.68v9.05h-3.54v-8.56a4.8,4.8,0,0,0-.77-3,2.81,2.81,0,0,0-2.36-1,3,3,0,0,0-2.45,1,4.63,4.63,0,0,0-.83,3v8.53h-3.51Z" transform="translate(-53.47 -116.78)"/><path class="cls-3" d="M397.59,277.38h3.66v21.7h-3.66Z" transform="translate(-53.47 -116.78)"/><path class="cls-3" d="M405.62,283.58h3.16l.25,1.52a5.64,5.64,0,0,1,1.86-1.27,5.83,5.83,0,0,1,2.32-.47,6.11,6.11,0,0,1,3.12.76,5,5,0,0,1,2,2.23,8.36,8.36,0,0,1,.71,3.68v9.05h-3.53v-8.56a4.8,4.8,0,0,0-.78-3,2.79,2.79,0,0,0-2.35-1,3,3,0,0,0-2.45,1,4.58,4.58,0,0,0-.84,3v8.53h-3.5Z" transform="translate(-53.47 -116.78)"/><path class="cls-3" d="M425.21,294.09a2.47,2.47,0,0,0,.73,1.33,3,3,0,0,0,1.19.62,5,5,0,0,0,1.24.19,3.26,3.26,0,0,0,1.91-.5,1.44,1.44,0,0,0,.7-1.18,1.16,1.16,0,0,0-.47-1,3.54,3.54,0,0,0-1.19-.54l-1.54-.42c-.55-.15-1.14-.31-1.76-.5a7.72,7.72,0,0,1-1.77-.77,4.25,4.25,0,0,1-1.36-1.27,3.35,3.35,0,0,1-.53-2,4,4,0,0,1,.81-2.48,5.41,5.41,0,0,1,2.21-1.66,7.89,7.89,0,0,1,3.12-.6,7,7,0,0,1,3.56.87,5.14,5.14,0,0,1,2.23,2.54l-3.06,1a2.07,2.07,0,0,0-.64-.77,2.64,2.64,0,0,0-1-.45,5,5,0,0,0-1.16-.14,3.24,3.24,0,0,0-1.68.4,1.25,1.25,0,0,0-.68,1.12,1,1,0,0,0,.23.67,2.15,2.15,0,0,0,.64.46,4.88,4.88,0,0,0,1,.33c.37.08.76.18,1.18.31.66.18,1.31.38,2,.6a8.89,8.89,0,0,1,1.79.82,3.76,3.76,0,0,1,1.3,1.3,4.27,4.27,0,0,1,.55,2.05,4.06,4.06,0,0,1-.78,2.42,5.31,5.31,0,0,1-2.2,1.73,8.24,8.24,0,0,1-3.47.65,7.54,7.54,0,0,1-3.91-1,5,5,0,0,1-2.23-3.18Z" transform="translate(-53.47 -116.78)"/><path class="cls-3" d="M439,283.58v-4.34h3.53v4.34h3.63v3.07h-3.63v6.88a2.83,2.83,0,0,0,.53,2,1.91,1.91,0,0,0,1.38.59,10,10,0,0,0,1.72-.09v3a8.66,8.66,0,0,1-2.62.17,5.48,5.48,0,0,1-2.33-.71,4.13,4.13,0,0,1-1.62-1.78,6.88,6.88,0,0,1-.59-3.1v-6.88h-2.2v-3.07Z" transform="translate(-53.47 -116.78)"/><path class="cls-3" d="M451.44,281.22a2.23,2.23,0,0,1-1.62-.65,2.12,2.12,0,0,1-.65-1.55,2.22,2.22,0,0,1,2.27-2.26,2.14,2.14,0,0,1,1.58.65,2.19,2.19,0,0,1,.65,1.61,2.12,2.12,0,0,1-.65,1.55A2.17,2.17,0,0,1,451.44,281.22Zm-1.77,2.36h3.5v15.5h-3.5Z" transform="translate(-53.47 -116.78)"/><path class="cls-3" d="M458.81,283.58v-4.34h3.54v4.34H466v3.07h-3.63v6.88a2.78,2.78,0,0,0,.53,2,1.91,1.91,0,0,0,1.37.59A10.09,10.09,0,0,0,466,296v3a8.66,8.66,0,0,1-2.62.17,5.48,5.48,0,0,1-2.33-.71,4.21,4.21,0,0,1-1.63-1.78,7,7,0,0,1-.59-3.1v-6.88h-2.2v-3.07Z" transform="translate(-53.47 -116.78)"/><path class="cls-3" d="M482.22,299.08H479l-.22-1.55a5.53,5.53,0,0,1-1.85,1.3,5.71,5.71,0,0,1-2.31.46,6.3,6.3,0,0,1-3.13-.75,5,5,0,0,1-2-2.24,8.23,8.23,0,0,1-.71-3.64v-9.08h3.5v8.58a4.82,4.82,0,0,0,.77,3,2.8,2.8,0,0,0,2.39,1,3,3,0,0,0,2.43-1,4.34,4.34,0,0,0,.89-3v-8.58h3.47Z" transform="translate(-53.47 -116.78)"/><path class="cls-3" d="M487.36,283.58v-4.34h3.54v4.34h3.63v3.07H490.9v6.88a2.78,2.78,0,0,0,.53,2,1.91,1.91,0,0,0,1.38.59,10,10,0,0,0,1.72-.09v3a8.66,8.66,0,0,1-2.62.17,5.48,5.48,0,0,1-2.33-.71,4.21,4.21,0,0,1-1.63-1.78,7,7,0,0,1-.59-3.1v-6.88h-2.2v-3.07Z" transform="translate(-53.47 -116.78)"/><path class="cls-3" d="M504.48,299.29a8,8,0,0,1-4.08-1,7.07,7.07,0,0,1-2.73-2.85,8.85,8.85,0,0,1-1-4.22,8.33,8.33,0,0,1,1-4,7.21,7.21,0,0,1,6.51-3.81,7.67,7.67,0,0,1,3.9,1,6.94,6.94,0,0,1,2.64,2.68,8.07,8.07,0,0,1,1,4,7.61,7.61,0,0,1-.05.79c0,.28-.06.57-.11.88h-11a3.89,3.89,0,0,0,.67,1.89,3.79,3.79,0,0,0,1.37,1.21,4.19,4.19,0,0,0,2,.43,5,5,0,0,0,2.31-.54,3.12,3.12,0,0,0,1.44-1.38l3.07,1a6.88,6.88,0,0,1-2.75,2.93A7.81,7.81,0,0,1,504.48,299.29Zm3.31-9.48a3.18,3.18,0,0,0-.49-1.74,3.71,3.71,0,0,0-1.3-1.22,3.64,3.64,0,0,0-1.8-.45,3.29,3.29,0,0,0-1.66.43,3.88,3.88,0,0,0-1.29,1.2,4.42,4.42,0,0,0-.71,1.78Z" transform="translate(-53.47 -116.78)"/><path class="cls-3" d="M530.55,299.29a8.14,8.14,0,0,1-4-1,7,7,0,0,1-2.74-2.76,9.38,9.38,0,0,1,0-8.45,7.06,7.06,0,0,1,2.81-2.77,8.71,8.71,0,0,1,8,0,7.35,7.35,0,0,1,2.83,2.76,8.89,8.89,0,0,1,0,8.44,7.42,7.42,0,0,1-2.89,2.78A8.38,8.38,0,0,1,530.55,299.29Zm0-3.13a4.29,4.29,0,0,0,2.06-.52,4.08,4.08,0,0,0,1.59-1.6,5.34,5.34,0,0,0,.62-2.74,5.51,5.51,0,0,0-.58-2.68,3.93,3.93,0,0,0-1.55-1.6,4.32,4.32,0,0,0-2.08-.53,4,4,0,0,0-2,.53,3.64,3.64,0,0,0-1.47,1.6,6,6,0,0,0-.54,2.74,5.93,5.93,0,0,0,.53,2.68,3.64,3.64,0,0,0,1.44,1.6A3.93,3.93,0,0,0,530.52,296.16Z" transform="translate(-53.47 -116.78)"/><path class="cls-3" d="M542.54,282a6.53,6.53,0,0,1,.66-3.1,3.79,3.79,0,0,1,2-1.8,7,7,0,0,1,3.44-.34v3a2.38,2.38,0,0,0-2,.44,2.49,2.49,0,0,0-.57,1.8v1.55h2.79v3.07h-2.79v12.43h-3.51V286.65h-1.89v-3.07h1.89Z" transform="translate(-53.47 -116.78)"/><path class="cls-3" d="M559.62,277.38h17v3.07H570v18.63h-3.66V280.45h-6.7Z" transform="translate(-53.47 -116.78)"/><path class="cls-3" d="M583.68,299.29a8,8,0,0,1-4.08-1,7.11,7.11,0,0,1-2.72-2.85,8.74,8.74,0,0,1-1-4.22,8.33,8.33,0,0,1,1-4,7.24,7.24,0,0,1,6.51-3.81,7.73,7.73,0,0,1,3.91,1,7,7,0,0,1,2.63,2.68,8.07,8.07,0,0,1,1,4,7.46,7.46,0,0,1,0,.79c0,.28-.07.57-.11.88h-11a4,4,0,0,0,.67,1.89,3.74,3.74,0,0,0,1.38,1.21,4.18,4.18,0,0,0,2,.43,4.92,4.92,0,0,0,2.31-.54,3.12,3.12,0,0,0,1.44-1.38l3.07,1a6.86,6.86,0,0,1-2.74,2.93A7.88,7.88,0,0,1,583.68,299.29Zm3.32-9.48a3.18,3.18,0,0,0-.5-1.74,3.61,3.61,0,0,0-3.1-1.67,3.29,3.29,0,0,0-1.66.43,4,4,0,0,0-1.28,1.2,4.43,4.43,0,0,0-.72,1.78Z" transform="translate(-53.47 -116.78)"/><path class="cls-3" d="M600.85,299.29a7.61,7.61,0,0,1-4-1,7,7,0,0,1-2.63-2.78,8.61,8.61,0,0,1-.95-4.12,8.78,8.78,0,0,1,1-4.19,7.27,7.27,0,0,1,2.68-2.82,7.69,7.69,0,0,1,4-1,8,8,0,0,1,4.24,1.13,6.46,6.46,0,0,1,2.67,3.05l-3.19,1.06a3.46,3.46,0,0,0-1.4-1.54,4.22,4.22,0,0,0-2.2-.57,3.78,3.78,0,0,0-2.14.61,3.64,3.64,0,0,0-1.39,1.69,6.48,6.48,0,0,0-.47,2.57,5.26,5.26,0,0,0,1.09,3.52,3.69,3.69,0,0,0,3,1.28,4.44,4.44,0,0,0,2.19-.54,3.54,3.54,0,0,0,1.47-1.5l3.13,1.05a7,7,0,0,1-2.79,3A8.1,8.1,0,0,1,600.85,299.29Z" transform="translate(-53.47 -116.78)"/><path class="cls-3" d="M611.21,276.76h3.5V285a5.74,5.74,0,0,1,1.83-1.19,6.33,6.33,0,0,1,2.45-.45,6,6,0,0,1,3,.76,5,5,0,0,1,2,2.23,8.35,8.35,0,0,1,.72,3.68v9.05h-3.66v-8.59a4.74,4.74,0,0,0-.78-2.95,2.79,2.79,0,0,0-2.35-1,3,3,0,0,0-2.45,1,4.58,4.58,0,0,0-.84,3v8.53h-3.5Z" transform="translate(-53.47 -116.78)"/><path class="cls-3" d="M628.69,283.58h3.16l.25,1.52a5.64,5.64,0,0,1,1.86-1.27,5.84,5.84,0,0,1,2.33-.47,6.1,6.1,0,0,1,3.11.76,5,5,0,0,1,2,2.23,8.35,8.35,0,0,1,.72,3.68v9.05h-3.54v-8.56a4.87,4.87,0,0,0-.77-3,2.82,2.82,0,0,0-2.36-1,3,3,0,0,0-2.45,1,4.58,4.58,0,0,0-.84,3v8.53h-3.5Z" transform="translate(-53.47 -116.78)"/><path class="cls-3" d="M652.93,299.29a8.1,8.1,0,0,1-4-1,6.93,6.93,0,0,1-2.74-2.76,9.3,9.3,0,0,1,0-8.45,7,7,0,0,1,2.8-2.77,8.71,8.71,0,0,1,8,0,7.38,7.38,0,0,1,2.84,2.76,8.93,8.93,0,0,1,0,8.44,7.33,7.33,0,0,1-2.88,2.78A8.42,8.42,0,0,1,652.93,299.29Zm0-3.13a4.26,4.26,0,0,0,2.06-.52,4,4,0,0,0,1.6-1.6,5.45,5.45,0,0,0,.62-2.74,5.51,5.51,0,0,0-.59-2.68A3.86,3.86,0,0,0,655,287a4.26,4.26,0,0,0-2.08-.53,4,4,0,0,0-2,.53,3.64,3.64,0,0,0-1.47,1.6,7.07,7.07,0,0,0,0,5.42,3.64,3.64,0,0,0,1.44,1.6A4,4,0,0,0,652.9,296.16Z" transform="translate(-53.47 -116.78)"/><path class="cls-3" d="M664.22,276.76h3.5v22.32h-3.5Z" transform="translate(-53.47 -116.78)"/><path class="cls-3" d="M678.72,299.29a8.12,8.12,0,0,1-4-1,6.93,6.93,0,0,1-2.74-2.76,9.3,9.3,0,0,1,0-8.45,7,7,0,0,1,2.8-2.77,8.71,8.71,0,0,1,8,0,7.31,7.31,0,0,1,2.84,2.76,8.93,8.93,0,0,1,0,8.44,7.33,7.33,0,0,1-2.88,2.78A8.42,8.42,0,0,1,678.72,299.29Zm0-3.13a4.26,4.26,0,0,0,2.06-.52,4,4,0,0,0,1.6-1.6,5.45,5.45,0,0,0,.62-2.74,5.51,5.51,0,0,0-.59-2.68,3.86,3.86,0,0,0-1.55-1.6,4.25,4.25,0,0,0-2.07-.53,4,4,0,0,0-2,.53,3.64,3.64,0,0,0-1.47,1.6,7.19,7.19,0,0,0,0,5.42,3.64,3.64,0,0,0,1.44,1.6A4,4,0,0,0,678.69,296.16Z" transform="translate(-53.47 -116.78)"/><path class="cls-3" d="M701.35,283.58h3.2v13.2a7.71,7.71,0,0,1-1.32,4.51,8.47,8.47,0,0,1-3.77,2.95,15.06,15.06,0,0,1-5.89,1l-.56-3a11,11,0,0,0,6-1.49,4.54,4.54,0,0,0,2-4v0h.41a5.86,5.86,0,0,1-2,1.8,6.4,6.4,0,0,1-3.19.74,6.5,6.5,0,0,1-6.13-3.78,10.39,10.39,0,0,1,0-8.37,6.93,6.93,0,0,1,8.19-3.48,6.26,6.26,0,0,1,1.67.77,5,5,0,0,1,1.2,1.07Zm-8.43,7.75A5.21,5.21,0,0,0,694,294.8a3.91,3.91,0,0,0,5,.76,4,4,0,0,0,1.46-1.66,6.5,6.5,0,0,0,0-5.19,3.89,3.89,0,0,0-1.47-1.63,3.81,3.81,0,0,0-2-.56,3.68,3.68,0,0,0-3,1.32A5.19,5.19,0,0,0,692.92,291.33Z" transform="translate(-53.47 -116.78)"/><path class="cls-3" d="M719.21,283.58h3.72l-9.11,21.7h-3.48l2.79-6.67-6.07-15H711l4.1,11Z" transform="translate(-53.47 -116.78)"/><path class="cls-3" d="M734.43,299.08v-21.7H744a8.61,8.61,0,0,1,3.84.77,5.7,5.7,0,0,1,2.34,2.06,5.31,5.31,0,0,1,.79,2.84,5.12,5.12,0,0,1-.52,2.42,4.28,4.28,0,0,1-1.43,1.58,6.17,6.17,0,0,1-2,.84v.24a6.63,6.63,0,0,1,2.36.78,4,4,0,0,1,1.58,1.67,5.93,5.93,0,0,1,.56,2.7,5.31,5.31,0,0,1-.85,3,5.82,5.82,0,0,1-2.44,2.08,8.72,8.72,0,0,1-3.78.76Zm12.8-15.56a2.82,2.82,0,0,0-.94-2.27,4,4,0,0,0-2.68-.8h-5.52v6.13h5.55a4,4,0,0,0,2.65-.8A2.81,2.81,0,0,0,747.23,283.52ZM738.09,296H744a4.24,4.24,0,0,0,2.74-.81,2.83,2.83,0,0,0,1-2.35,2.89,2.89,0,0,0-1.07-2.42,4.4,4.4,0,0,0-2.8-.84h-5.83Z" transform="translate(-53.47 -116.78)"/><path class="cls-3" d="M762,299.29a8.14,8.14,0,0,1-4-1,7,7,0,0,1-2.74-2.76,9.38,9.38,0,0,1,0-8.45,7.06,7.06,0,0,1,2.81-2.77,8.71,8.71,0,0,1,8,0,7.35,7.35,0,0,1,2.83,2.76,8.89,8.89,0,0,1,0,8.44,7.42,7.42,0,0,1-2.89,2.78A8.38,8.38,0,0,1,762,299.29Zm0-3.13a4.29,4.29,0,0,0,2.06-.52,4.17,4.17,0,0,0,1.6-1.6,5.45,5.45,0,0,0,.62-2.74,5.51,5.51,0,0,0-.59-2.68,3.93,3.93,0,0,0-1.55-1.6,4.29,4.29,0,0,0-2.08-.53,4,4,0,0,0-2,.53,3.64,3.64,0,0,0-1.47,1.6,6,6,0,0,0-.54,2.74,5.93,5.93,0,0,0,.53,2.68,3.64,3.64,0,0,0,1.44,1.6A3.93,3.93,0,0,0,762,296.16Z" transform="translate(-53.47 -116.78)"/><path class="cls-3" d="M773.27,283.58h3.16l.22,1.49a5.89,5.89,0,0,1,1.86-1.26,5.78,5.78,0,0,1,2.29-.45,5.91,5.91,0,0,1,2.79.64,4.89,4.89,0,0,1,2,1.84,5.67,5.67,0,0,1,2.23-1.83,7,7,0,0,1,3-.65,6.3,6.3,0,0,1,3.17.76,5.21,5.21,0,0,1,2.1,2.23,8.2,8.2,0,0,1,.74,3.68v9.05h-3.47v-8.56a4.55,4.55,0,0,0-.84-3,3,3,0,0,0-2.42-1,3.2,3.2,0,0,0-2.51,1,4.36,4.36,0,0,0-.9,3v8.53h-3.5v-8.56a4.87,4.87,0,0,0-.76-3,2.77,2.77,0,0,0-2.34-1,3,3,0,0,0-2.45,1,4.58,4.58,0,0,0-.84,3v8.53h-3.5Z" transform="translate(-53.47 -116.78)"/><path class="cls-3" d="M803.78,285.87a5.91,5.91,0,0,1,2.12-1.78,6.79,6.79,0,0,1,3.24-.73,6.52,6.52,0,0,1,3.59,1,6.72,6.72,0,0,1,2.44,2.79,10.39,10.39,0,0,1,0,8.37,6.72,6.72,0,0,1-2.44,2.79,7.23,7.23,0,0,1-6.58.37,6.3,6.3,0,0,1-2-1.51l-.25,1.92h-3.16V276.76h3.5V286Zm8.55,5.46a5.17,5.17,0,0,0-1.13-3.47,3.67,3.67,0,0,0-2.93-1.34,4,4,0,0,0-2,.56,3.89,3.89,0,0,0-1.47,1.63,5.74,5.74,0,0,0-.54,2.62,5.8,5.8,0,0,0,.54,2.62,3.85,3.85,0,0,0,3.52,2.18,3.66,3.66,0,0,0,2.93-1.33A5.21,5.21,0,0,0,812.33,291.33Z" transform="translate(-53.47 -116.78)"/><path class="cls-3" d="M828.39,299.08l-.31-1.89a5.32,5.32,0,0,1-1.77,1.52,6,6,0,0,1-2.73.52,6.68,6.68,0,0,1-2.79-.54,4.19,4.19,0,0,1-1.81-1.52,4.11,4.11,0,0,1-.64-2.28,4.28,4.28,0,0,1,1.43-3.27A7.11,7.11,0,0,1,824,290l4.06-.5v-1.18a1.85,1.85,0,0,0-.65-1.35,3,3,0,0,0-2.08-.6,3.79,3.79,0,0,0-2.15.6,3,3,0,0,0-1.23,1.82l-3-1.12a5.57,5.57,0,0,1,2.34-3.19,7.59,7.59,0,0,1,4.27-1.15,6.14,6.14,0,0,1,4.52,1.52,5.24,5.24,0,0,1,1.52,3.87v10.33Zm-.31-6.82-3.72.49a3.14,3.14,0,0,0-1.77.65,1.68,1.68,0,0,0-.59,1.28,1.57,1.57,0,0,0,.58,1.22,2.26,2.26,0,0,0,1.56.51,4.8,4.8,0,0,0,2.19-.45,2.86,2.86,0,0,0,1.31-1.33,4.86,4.86,0,0,0,.44-2.16Z" transform="translate(-53.47 -116.78)"/><path class="cls-3" d="M845.56,283.58h3.72l-9.11,21.7H836.7l2.79-6.67-6.08-15h3.91l4.09,11Z" transform="translate(-53.47 -116.78)"/><path class="cls-4" d="M153.81,117.39a98.42,98.42,0,0,1,18.95-.3c1.77.13,3.54.36,5.31.51.41,0,.54.21.63.59,1.14,4.8,2.31,9.6,3.43,14.4a1.26,1.26,0,0,0,1.16,1.1,94.15,94.15,0,0,1,13.08,3.5.75.75,0,0,0,.91-.25c3.63-3.59,7.27-7.16,10.89-10.76a.87.87,0,0,1,1.15-.19,113.3,113.3,0,0,1,16.61,8.82c1.32.87,2.58,1.83,3.9,2.69a.92.92,0,0,1,.43,1.21c-.93,3.15-1.84,6.32-2.76,9.48-.45,1.56-.89,3.12-1.37,4.67a.71.71,0,0,0,.27.9,85.31,85.31,0,0,1,10.11,9.64.6.6,0,0,0,.8.16l12.78-4.91c1.59-.62,1.58-.63,2.63.7a123.29,123.29,0,0,1,12.13,18.94,1,1,0,0,1-.21,1.32c-3.44,3.5-6.85,7-10.29,10.52a.76.76,0,0,0-.2,1A80.32,80.32,0,0,1,258.28,203c.1.42.35.53.75.58,4.92.65,9.84,1.33,14.76,2a.66.66,0,0,1,.68.63c.54,3.49,1.24,7,1.59,10.48.41,4.22.51,8.46.77,12.7a.79.79,0,0,1-.65,1c-4.65,1.52-9.28,3.09-13.93,4.61a1.24,1.24,0,0,0-1,1.23c-.53,4-1.13,8-1.74,12.06a.93.93,0,0,0,.43,1.08q5.61,4,11.2,8.13c1.48,1.09,1.47,1.12,1,2.87a86.08,86.08,0,0,1-5.53,14.63c-1,2.2-2.19,4.35-3.26,6.54a.8.8,0,0,1-1.07.52c-4.82-1.08-9.65-2.12-14.47-3.19a.68.68,0,0,0-.81.34q-4,5.81-8.11,11.6c-.49.7-.58.71-1.24.17l-20.17-16.35c-.48-.38-.56-.68-.12-1.17a65.93,65.93,0,0,0,8.92-12.86,70,70,0,0,0,6-15.43,66.15,66.15,0,0,0,2.1-19.26A68.07,68.07,0,0,0,224.6,193a69.57,69.57,0,0,0-19.3-20.94,68.05,68.05,0,0,0-23-10.73,66.83,66.83,0,0,0-21.17-2.05,68.22,68.22,0,0,0-35.27,12.36,69.58,69.58,0,0,0-20.42,22.19,68.17,68.17,0,0,0-7.95,20.95,65.36,65.36,0,0,0-1.27,16.33,66.88,66.88,0,0,0,4.34,20.13,77.23,77.23,0,0,0,12.85,22.33c.14.17.26.36.41.52.89.92.46,1-.14,1.46L94.14,291.52c-.8.66-.8.67-1.49-.19a105.44,105.44,0,0,1-8.76-11.86.72.72,0,0,0-.88-.35L69.4,281.54l-.65.11c-1.64.28-1.65.29-2.44-1.19a103.92,103.92,0,0,1-8-19.58q-.34-1.2-.72-2.4a.7.7,0,0,1,.38-.91c4.33-2.61,8.63-5.25,13-7.86a.86.86,0,0,0,.44-1.11,77.64,77.64,0,0,1-1.94-13.22.85.85,0,0,0-.72-.91c-4.77-1.38-9.52-2.8-14.29-4.16a1,1,0,0,1-.92-1.19,92.91,92.91,0,0,1,1-16.5c.38-2.36.91-4.7,1.34-7.05.09-.47.36-.55.77-.61,5.08-.63,10.15-1.29,15.23-1.91a.89.89,0,0,0,.87-.78A91.22,91.22,0,0,1,77,190.1a.77.77,0,0,0-.18-1c-3.3-3.36-6.6-6.71-9.86-10.1-1.54-1.6-1.44-.91-.46-2.88A92,92,0,0,1,80,156.37a.75.75,0,0,1,1.07-.18c4.46,2.12,8.93,4.22,13.39,6.35a.67.67,0,0,0,.9-.14q5-4.64,10-9.24a.7.7,0,0,0,.25-.89c-1.6-4.79-3.17-9.58-4.77-14.37a.64.64,0,0,1,.3-.87,129.36,129.36,0,0,1,21.47-11.85c1.09-.45,1.09-.46,1.87.41,3.22,3.61,6.44,7.21,9.64,10.85a1,1,0,0,0,1.23.29,82.84,82.84,0,0,1,12.9-3.15c1.15-.19,1.13-.18,1.43-1.26Q151.74,124.87,153.81,117.39Zm-45.15,157a2.15,2.15,0,0,0-.14-.23A81.22,81.22,0,0,1,98.3,256.57a73.74,73.74,0,0,1-5.94-23.38,69.77,69.77,0,0,1,1-18.25,73.08,73.08,0,0,1,66.56-59.59,74.17,74.17,0,0,1,17.48.8,71.86,71.86,0,0,1,14.26,3.9,73.33,73.33,0,0,1,42.93,44.76,72.92,72.92,0,0,1,1.22,42.76,72.85,72.85,0,0,1-11.25,23.52c-.57.79-1.16,1.58-1.82,2.47l14.77,12,.34-.41a101.19,101.19,0,0,0,7-10.58.7.7,0,0,1,.89-.42c4.77,1.06,9.56,2.09,14.33,3.17a.71.71,0,0,0,1-.45,96.49,96.49,0,0,0,6.53-15.65c.39-1.26.54-.92-.59-1.73-3.87-2.82-7.78-5.59-11.68-8.36a.89.89,0,0,1-.42-1.08c.54-2.56,1.12-5.11,1.5-7.69.48-3.21.81-6.45,1.16-9.68a.75.75,0,0,1,.63-.75l13.87-4.61c.44-.15.65-.32.63-.82a115.07,115.07,0,0,0-1.62-16.58.86.86,0,0,0-.85-.82c-1.72-.21-3.43-.48-5.15-.71l-9.41-1.21a.74.74,0,0,1-.74-.66,42.74,42.74,0,0,0-1.22-4.64c-1.4-3.9-2.89-7.77-4.36-11.65a1,1,0,0,1,.23-1.22c1.88-1.89,3.73-3.8,5.59-5.71l4.94-5.07-1.37-2.43a120.74,120.74,0,0,0-8-12.17,1,1,0,0,0-1.32-.35c-1.61.66-3.23,1.27-4.85,1.89-2.78,1.07-5.57,2.13-8.35,3.22a.86.86,0,0,1-1.19-.31c-.12-.18-.29-.33-.43-.5a84.44,84.44,0,0,0-12.61-12,1.18,1.18,0,0,1-.51-1.53c1.35-4.54,2.65-9.1,4-13.64.15-.52.16-.84-.36-1.19a103.58,103.58,0,0,0-15-8.4.63.63,0,0,0-.84.14c-3.55,3.52-7.12,7-10.66,10.53a1.13,1.13,0,0,1-1.38.29,98,98,0,0,0-17.66-4.69.7.7,0,0,1-.68-.63c-1.15-4.81-2.31-9.61-3.44-14.41a.87.87,0,0,0-.92-.81c-1.43-.08-2.85-.21-4.28-.3a99.46,99.46,0,0,0-12.45.06,1,1,0,0,0-1,.83c-1.31,4.85-2.66,9.69-4,14.54-.11.37-.24.57-.67.63-1.35.19-2.69.44-4,.68a77.82,77.82,0,0,0-14.21,3.88.76.76,0,0,1-1-.22q-3.84-4.35-7.71-8.68l-2.68-3L122,130a124.08,124.08,0,0,0-15.72,8.7.89.89,0,0,0-.42,1.26c1.54,4.58,3.05,9.16,4.57,13.74a.8.8,0,0,1-.3,1,138.24,138.24,0,0,0-13.63,12.54,1,1,0,0,1-1.31.25c-2.65-1.28-5.31-2.54-8-3.8L81.52,161a86.1,86.1,0,0,0-10.8,15.89C74.37,180.63,78,184.34,81.6,188a1,1,0,0,1,.23,1.27q-1.06,2.34-2,4.72a83,83,0,0,0-3.82,12c-.09.38-.21.61-.7.67-5.1.61-10.2,1.28-15.3,1.91a.76.76,0,0,0-.76.72,84,84,0,0,0-1.71,17c0,.54.3.65.71.77l14.53,4.22a.7.7,0,0,1,.58.78c.06,1.56.12,3.12.25,4.67A87,87,0,0,0,76,250.69a.74.74,0,0,1-.4,1c-4.28,2.59-8.55,5.22-12.83,7.81a.71.71,0,0,0-.37,1c.59,1.65,1.1,3.33,1.69,5a101.79,101.79,0,0,0,4.92,11.35.79.79,0,0,0,1,.49c5-.92,10.07-1.79,15.1-2.72a.75.75,0,0,1,.88.43c1.61,2.49,3.21,5,4.9,7.42.92,1.33,2,2.55,3,3.84Z" transform="translate(-53.47 -116.78)"/><path class="cls-4" d="M182.14,172.4a25.61,25.61,0,0,0-1.54,7.25c0,.06.06.11,0,.08,1.31-.59,2.56-1.25,3.89-1.72a8,8,0,0,1,4.48-.31c.72.17.73.3.53,1-.48,1.66-.9,3.34-1.33,5a3.94,3.94,0,0,0,0,.69c1.31-.36,2.54-.74,3.8-1a7.31,7.31,0,0,1,4.83.45c.79.37.85.71.25,1.34a13.34,13.34,0,0,0-3,5.11c-.06.18-.11.37-.18.63a1.31,1.31,0,0,0,.35-.05,11,11,0,0,1,6.9-.66,8.89,8.89,0,0,1,2.32,1,1.52,1.52,0,0,1,.57.78.63.63,0,0,1-.19.59,11.36,11.36,0,0,0-4.64,4.29c-1.38,2.16-2.64,4.4-4,6.6a13.57,13.57,0,0,1-7.2,5.88,3.71,3.71,0,0,0-.55.22c-.05,0-.08.09-.11.14a11.35,11.35,0,0,1,1.91,1.49c.95,1.11,1.76,2.34,2.64,3.52.5.66,1,1.32,1.53,2a6,6,0,0,0,4.72,1.94c.9,0,1,.17.64,1a9.89,9.89,0,0,1-2.44,3.48,14.56,14.56,0,0,1-7.94,4.37,19.52,19.52,0,0,1-10.53-1.21,11.19,11.19,0,0,1-1.94-1.28c-.95,1.75-2.69,2.55-4.56,3.14-.61.18-1.25.28-1.85.48a1.3,1.3,0,0,0-.72.54,22.09,22.09,0,0,0-1.27,14.05c0,.06.07.1.1.14,1.24-.3,2.46-.64,3.7-.89a18.86,18.86,0,0,1,10.48,1,19.6,19.6,0,0,0,7,1.53c.88,0,1.76-.11,2.63-.19a.87.87,0,0,1,1,.46c3.11,5.26,6.25,10.49,9.35,15.75a1.34,1.34,0,0,1,0,.95c-.4,1.27-.93,2.5-1.27,3.78a2.88,2.88,0,0,0,.89,2.83l1.34,1.33a3.37,3.37,0,0,1-.58.08l-25.14,0c-1.94,0-3.87,0-5.81,0a1.37,1.37,0,0,0-.76.27,9.44,9.44,0,0,1-11.72.14,2.09,2.09,0,0,0-1.38-.44l-30,.14-.53,0c.25-.4.43-.74.66-1a2.54,2.54,0,0,0,.29-3c-.75-1.34-1.54-2.65-2.37-3.95a.79.79,0,0,1,0-1.1q5.13-6.4,10.22-12.84c1-1.22,1.93-2.46,2.92-3.65a1.09,1.09,0,0,1,.81-.36,42.79,42.79,0,0,0,13.81-1.08,16.49,16.49,0,0,1,7.13-.09l.33,0A1.33,1.33,0,0,0,161,243a25.94,25.94,0,0,1,1.41-14.42l-2.4-.77a10.89,10.89,0,0,1-5.05-3.2,1.1,1.1,0,0,0-1.37-.33,52.8,52.8,0,0,1-5.94,1.66,13.6,13.6,0,0,1-9.13-1.37,14.38,14.38,0,0,1-5.87-5.22,5.28,5.28,0,0,1-.27-.53c-.39-.92-.31-1.16.61-1.58a6.43,6.43,0,0,0,3-2.94,18,18,0,0,1,3.87-5,1.83,1.83,0,0,0,.23-.24,3.36,3.36,0,0,0-.47-.23,10.4,10.4,0,0,1-6.74-6c-1-2.07-1.89-4.16-2.91-6.2a8.81,8.81,0,0,0-3.77-3.94c-.57-.3-.6-.65-.34-1.16a5,5,0,0,1,4.12-2.68,9.9,9.9,0,0,1,4.47.47,5.11,5.11,0,0,0-.14-.66,12.2,12.2,0,0,0-2.9-4.73c-1-1-.93-1.27.41-1.7a8.24,8.24,0,0,1,6.47.5,29.17,29.17,0,0,1,2.73,1.75,1.55,1.55,0,0,0,0-.41,22.51,22.51,0,0,0-1.6-6.36c-.33-.86-.25-1,.63-1.11a10.38,10.38,0,0,1,9.2,3.24,1.2,1.2,0,0,0,.28.12c.31-2.94,1.26-5.78.2-8.81,4.42-.14,8.06,1.16,10.77,4.73.13-.17.23-.29.32-.43,1.37-2.16,2.73-4.34,4.13-6.49.54-.83.73-.8,1.33,0a40.51,40.51,0,0,1,4.3,6.84c.11.22.23.42.39.71C174,173.26,177.56,171.48,182.14,172.4Zm10.3,91,2.09.28,0-.28h-2.12c-.1-.11-.17-.29-.28-.31-.43-.08-.86-.09-1.29-.16-3.13-.52-6.24-1.11-9.38-1.53a20.27,20.27,0,0,0-9.68.85,12.81,12.81,0,0,0-3.57,1.91c.31.36.31.36.74.12a19.77,19.77,0,0,1,8.34-2.4,46.06,46.06,0,0,1,10.48.82C189.34,262.94,190.89,263.15,192.44,263.38Zm-28.87-2.6a2.86,2.86,0,0,0,.07-.36q.33-6.65.67-13.29a1,1,0,0,0-.53-1,12,12,0,0,0-8-1.73c-1.76.17-3.48.65-5.23,1a46.38,46.38,0,0,1-9.92.51,1.51,1.51,0,0,0-1.41.7q-5,6.28-10,12.53l-1.15,1.5a7.57,7.57,0,0,0,1.07.06c2.53-.22,5.08-.35,7.59-.71,4.47-.64,8.89-1.62,13.42-1.85a24,24,0,0,1,8.92.85C160.61,259.43,162,260.14,163.57,260.78Zm36-.19c-.13-.27-.19-.41-.27-.54q-3.9-6.57-7.82-13.12a1,1,0,0,0-.79-.38,21.27,21.27,0,0,1-9.17-1.4,17.14,17.14,0,0,0-8.5-1.27,18,18,0,0,0-6.36,2A1.11,1.11,0,0,0,166,247c0,1.43-.09,2.86-.17,4.28-.15,3.06-.32,6.11-.46,9.16a.82.82,0,0,0,.27.6c.08.07.39-.05.55-.16a17.29,17.29,0,0,1,8.63-2.69,49.6,49.6,0,0,1,11.08.82c3.35.54,6.7,1.12,10.07,1.59A26.37,26.37,0,0,0,199.56,260.59ZM165.5,172.41c-.74,1-1.51,1.89-2.09,2.88a33.51,33.51,0,0,0-4.43,13,23.3,23.3,0,0,0,1.91,13,8,8,0,0,0,4,4.08,1.62,1.62,0,0,0,1.5,0,6.8,6.8,0,0,0,3.3-3.37,26.13,26.13,0,0,0,2.33-9.59,32.2,32.2,0,0,0-3.13-15.33A14,14,0,0,0,165.5,172.41Zm10,43.39a9.74,9.74,0,0,0-.23-1.21,9.89,9.89,0,0,0-4.61-5.61c-3.62-2.23-10.81-2-14,3.18-.74,1.21-1.49,2.4-1.27,3.91a5.7,5.7,0,0,0,4.64,4.62,8.29,8.29,0,0,0,5-1,1.07,1.07,0,0,1,1.2.06,6.19,6.19,0,0,0,7.63-.37A4.48,4.48,0,0,0,175.47,215.8Zm-14.66-10.89-.58-.72a18.77,18.77,0,0,1-3.65-11.65,36.24,36.24,0,0,1,2.23-12.45,1.49,1.49,0,0,0,.09-.8,9.17,9.17,0,0,0-5-5.46c-1.16-.56-1.18-.47-1.35.77-.56,4.13-1.19,8.25-1.74,12.38a18.89,18.89,0,0,0,.08,7.07,15.47,15.47,0,0,0,5.77,9.3A9.49,9.49,0,0,0,160.81,204.91Zm14.72,5c.12.26.19.47.29.65a14.22,14.22,0,0,1,2.26,7.13,2.3,2.3,0,0,0,1.5,2.13,20.47,20.47,0,0,0,11.56,2.08,7.36,7.36,0,0,0,3.92-1.55c-.33-.22-.61-.43-.91-.6a9.73,9.73,0,0,1-3.17-3c-1.08-1.51-2.2-3-3.38-4.45a5,5,0,0,0-3.58-1.74c-2.47-.23-4.94-.42-7.41-.63C176.27,209.84,175.94,209.86,175.53,209.86ZM170,205.21a1.25,1.25,0,0,0,1.65.27c3.76-2,5.58-5.31,6.38-9.33a37.78,37.78,0,0,0,.22-9.85c-.25-3.78-.45-7.55.55-11.27.14-.51-.06-.63-.54-.48a12.45,12.45,0,0,0-5.8,4.06,1.13,1.13,0,0,0-.23,1.24,32.91,32.91,0,0,1,1.41,17A18.55,18.55,0,0,1,170,205.21Zm-12.95,1.22c-.15-.25-.17-.32-.22-.35a4.62,4.62,0,0,0-.55-.35,15,15,0,0,1-7.11-8.72c-1.21-3.8-1-7.68-.49-11.56.16-1.18.49-2.37-.57-3.35-.46-.44-.84-1-1.3-1.4a7.12,7.12,0,0,0-3.3-1.84c-.82-.19-1.12.09-1,.89.15,1,.35,2,.42,3.07.16,2.63.21,5.27.4,7.89a18.7,18.7,0,0,0,3.28,9.87c1.94,2.71,4.26,4.86,7.67,5.49C155.15,206.23,156,206.3,157.06,206.43Zm-1.33,3.12a.39.39,0,0,0-.13,0,71.19,71.19,0,0,0-10.73.23,7.36,7.36,0,0,0-5.28,2.87c-1.39,1.89-2.69,3.83-4.08,5.82a4.24,4.24,0,0,0,.87.25c1.75.1,3.5.3,5.24.23a17.67,17.67,0,0,0,7.82-1.82c1.53-.82,3.07-1.63,3.94-3.27C154.14,212.4,154.94,211,155.73,209.55Zm18.71-3.34.06.18a3.82,3.82,0,0,0,.68,0,9.5,9.5,0,0,0,4.33-2.25,16.47,16.47,0,0,0,5-9.38c.59-2.85.9-5.76,1.31-8.65.25-1.78.49-3.56.69-5.34.08-.69-.12-.82-.8-.65a10.55,10.55,0,0,0-4.17,2.29,2.54,2.54,0,0,0-1,2.4,51.16,51.16,0,0,1,.12,9,20.94,20.94,0,0,1-1.81,7A13.19,13.19,0,0,1,174.44,206.21Zm-23.07,1.39c-.08-.14-.09-.19-.12-.21a3.22,3.22,0,0,0-.39-.25,18,18,0,0,1-7.83-8.87,24.25,24.25,0,0,1-1.88-9.36,3.06,3.06,0,0,0-.85-2.12,7.7,7.7,0,0,0-5.47-2.93,2.24,2.24,0,0,0-.61.14,2.24,2.24,0,0,0,.17.59,20.55,20.55,0,0,1,2.24,5.1c.85,2.95,1.71,5.9,2.77,8.78a13.91,13.91,0,0,0,7.93,8.33A9.1,9.1,0,0,0,151.37,207.6Zm28.18-.59a3.32,3.32,0,0,0,.33.05,1.18,1.18,0,0,0,.26,0,8.6,8.6,0,0,0,4.4-2.22,22.2,22.2,0,0,0,6.32-11,25.38,25.38,0,0,1,2.84-7.69c.4-.64.29-.8-.47-.79a9.43,9.43,0,0,0-5.17,1.91,1.27,1.27,0,0,0-.36.8c-.43,2.42-.77,4.85-1.25,7.26a19.15,19.15,0,0,1-5.9,10.92C180.26,206.45,180,206.69,179.55,207Zm-50.92-15.58,0,.27a12.24,12.24,0,0,0,.83.93,12.34,12.34,0,0,1,2.62,4c.69,1.57,1.37,3.14,2.08,4.69,1.59,3.46,4.06,5.8,8,6.23a19.35,19.35,0,0,0,2,0,2,2,0,0,0-.13-.25l-.38-.26a14.77,14.77,0,0,1-5.91-7.29c-.7-2-1.29-4-1.95-6a2.38,2.38,0,0,0-.51-.89,6,6,0,0,0-5.26-1.85A9.44,9.44,0,0,0,128.63,191.43ZM183.28,208l0,.22a9,9,0,0,0,1.27.05,10.79,10.79,0,0,0,7.92-4.41,34.68,34.68,0,0,0,2.7-4.35,37,37,0,0,1,3.93-6.53,1.77,1.77,0,0,0,.23-.62c-.22-.07-.46-.23-.66-.19a13.72,13.72,0,0,0-3,.79,7.07,7.07,0,0,0-3.93,4.35,15.94,15.94,0,0,1-2.59,5A19.44,19.44,0,0,1,183.28,208Zm-18.63,54.71a12.76,12.76,0,0,0-3.32,5.23,1.74,1.74,0,0,0,1.41,2.37,6.53,6.53,0,0,0,3.89-.06c1.4-.49,1.83-1.13,1.32-2.48A14.08,14.08,0,0,0,164.65,262.71Zm-2.08-24.61c.1,1.13.13,2.28.32,3.4s.06,2.57,1.61,3.07c.31.1.6.42.86.07a1,1,0,0,0,.09-.75,24,24,0,0,1-.35-9.35c.28-1.65.8-3.26,1.19-4.9a1.32,1.32,0,0,0,0-.56,6.9,6.9,0,0,0-1.57-.05c-.17,0-.34.41-.44.66A23.49,23.49,0,0,0,162.57,238.1Zm8.78,30v.25a8.5,8.5,0,0,0,.87.07l12.73,0c4.57,0,9.14,0,13.71,0,.19,0,.37-.17.56-.26-.2-.12-.39-.34-.59-.34-.53,0-1,.08-1.58.1-3.42.19-6.77-.54-10.15-.85a43.62,43.62,0,0,0-12.6.24C173.32,267.62,172.34,267.89,171.35,268.13Zm-12.71.2v-.15a4.26,4.26,0,0,0-.47-.15c-1.44-.28-2.88-.58-4.33-.81a32.18,32.18,0,0,0-8.93,0c-2.8.34-5.62.71-8.44.83-2.07.1-4.16-.18-6.24-.27-.17,0-.34.25-.51.38a1.68,1.68,0,0,0,.42.42c.11.07.3,0,.45,0l27.32-.13A4.48,4.48,0,0,0,158.64,268.33Zm2-3.58a4,4,0,0,0-.57-.36,18.69,18.69,0,0,0-6.36-1.49,50.77,50.77,0,0,0-11.14.86A85.34,85.34,0,0,1,132,265c-.22,0-.43.08-.64.11a.9.9,0,0,0,.58.28,37.49,37.49,0,0,0,10.41-.59c2-.39,4.06-.76,6.1-1a27.29,27.29,0,0,1,11.08,1.49C160.11,265.51,160.49,265.5,160.63,264.75Zm38.26,2v-.29a3.67,3.67,0,0,0-.43-.09c-1.58,0-3.17.06-4.73-.11-3.7-.41-7.38-1-11.09-1.42a24.37,24.37,0,0,0-12.36,1.84,6.82,6.82,0,0,0-.68.41l.07.22a4.35,4.35,0,0,0,.63,0c1.85-.4,3.67-.93,5.53-1.19a53.52,53.52,0,0,1,13.79.32,42.64,42.64,0,0,0,7.74.55C197.86,266.94,198.38,266.84,198.89,266.77Zm-36.44-4.39v-.23c-.1-.07-.2-.16-.31-.23-3.12-2.05-6.63-2.54-10.26-2.51a77.53,77.53,0,0,0-11.95,1.45A52.87,52.87,0,0,1,128.1,262a2.83,2.83,0,0,0-.56.09v.26a5.82,5.82,0,0,0,1.23.15c3.18-.2,6.36-.34,9.52-.69,4-.44,8-1.2,11.94-1.56s8,0,11.66,2.14C162,262.45,162.26,262.38,162.45,262.38Zm-32.72,3.86,0,.27c.29.07.58.15.87.19a38.73,38.73,0,0,0,10.7-.05c1.74-.24,3.47-.54,5.22-.69A37,37,0,0,1,159,267.11c.28.07.67.26.71-.21,0-.17-.31-.47-.53-.54-1.09-.33-2.19-.64-3.3-.89a19.52,19.52,0,0,0-6.58-.66c-2.53.29-5,.73-7.54,1.16a36.71,36.71,0,0,1-10.36.39C130.86,266.3,130.29,266.28,129.73,266.24Zm70.18-3.92v-.27l-.54-.05c-1.78-.07-3.57,0-5.32-.22-3.82-.53-7.61-1.28-11.43-1.86A28.05,28.05,0,0,0,172,260a13.82,13.82,0,0,0-5.16,2.29l.67.84c.79-.44,1.51-.89,2.28-1.26a20.68,20.68,0,0,1,11.66-1.53c3.5.42,7,1.07,10.46,1.62a33.14,33.14,0,0,0,7,.54A9.19,9.19,0,0,0,199.91,262.32Zm-30.85,3.25.06.27a3.18,3.18,0,0,0,.61-.14,25.44,25.44,0,0,1,12.38-1.92c3.87.33,7.71,1,11.56,1.41a43,43,0,0,0,4.4.19,3.24,3.24,0,0,0,1-.34l-.07-.26-.75,0a39.19,39.19,0,0,1-4.34-.1c-3.53-.44-7-1-10.56-1.5a23.34,23.34,0,0,0-10.11.55A16.47,16.47,0,0,0,169.06,265.57Zm-39.53-1.95v.22c.42,0,.84.09,1.25.11a62.68,62.68,0,0,0,10.85-1.11,67.24,67.24,0,0,1,10.41-1,21.93,21.93,0,0,1,8.9,1.73,1.51,1.51,0,0,0,.38.06,1.19,1.19,0,0,0-.51-.51,16.32,16.32,0,0,0-7.65-1.9c-3.73-.16-7.37.63-11,1.11-3.21.42-6.44.77-9.66,1.13C131.49,263.54,130.51,263.56,129.53,263.62Zm36.89-38.74h0c0-.57,0-1.14,0-1.71a.83.83,0,0,0-.85-.89,1.26,1.26,0,0,0-.87.85,23.54,23.54,0,0,0-.08,3.36c0,.18.28.41.49.52a2,2,0,0,0,.71.11c.39,0,.58-.12.57-.52Zm1.44-.11h0c0,.55,0,1.1,0,1.64a.67.67,0,0,0,.22.5,1,1,0,0,0,1.38-.87q0-1.41,0-2.82c0-.34,0-.72-.5-.61s-1.1-.22-1.07.65C167.88,223.76,167.86,224.27,167.86,224.77Zm-4.6,0h0c0-.5,0-1,0-1.51s-.12-.54-.49-.53a2.32,2.32,0,0,1-.59-.06c-.52-.11-.67.13-.65.6,0,.66,0,1.32,0,2,0,1.12.12,1.26,1.25,1.38a.54.54,0,0,0,.43-.35C163.29,225.82,163.26,225.32,163.26,224.81Zm7.59,1.48c1.35-.25,1.4-.3,1.4-1.49,0-.64,0-1.28,0-1.91,0-.33.07-.73-.47-.65s-1-.09-1,.65,0,1.76,0,2.64C170.79,225.78,170.83,226,170.85,226.29Zm-25-4h0c0-.37,0-.74,0-1.11s.12-.76-.4-.72-1,0-.94.71,0,1.57,0,2.36c0,.38,0,.77.58.73s.83-.2.79-.79C145.79,223,145.81,222.65,145.81,222.25Zm2.47-2.32c-1.25.16-1.25.16-1.25,1.24,0,.68,0,1.36,0,2,0,.22.23.42.35.63.29-.17.83-.33.84-.53C148.32,222.2,148.28,221.09,148.28,219.93Zm1.27,3.19c1.23-.35,1.31-.44,1.31-1.5,0-.59,0-1.18,0-1.77a1.87,1.87,0,0,0-.27-.64c-.34.19-.95.35-1,.57C149.5,220.86,149.55,222,149.55,223.12Zm-6.34-.69a7.73,7.73,0,0,0,0-1.18c0-.19-.25-.5-.39-.5-.35,0-.89-.15-.92.44a20.65,20.65,0,0,0,0,2.36c0,.6.58.51,1,.51.13,0,.33-.32.36-.52A6.84,6.84,0,0,0,143.21,222.43Zm17,3.22c0-.84,0-1.6,0-2.36s-.21-.9-1-.89c-.62,0-.35.53-.41.85a3.88,3.88,0,0,0,0,.59C158.76,225.06,158.85,225.18,160.17,225.65Zm-6.95-7.34-.26-.12c-.28.21-.79.4-.81.63a30.08,30.08,0,0,0,0,3.05c.48-.37,1-.58,1.07-.86A20.25,20.25,0,0,0,153.22,218.31Zm26.25,6.27c.55-1.65.1-2.59-1.3-2.82C177.65,223.28,178,224,179.47,224.58Zm1.42-1.74a8.51,8.51,0,0,0,.05,2.06c.08.27.67.43,1,.6.09,0,.36-.09.36-.15a4.56,4.56,0,0,0,0-1.81C182.17,223.21,181.49,223.11,180.89,222.84Zm-40.28.62c0-.8,0-1.53,0-2.26,0-.12-.35-.31-.54-.31s-.63.09-.71.26A1.6,1.6,0,0,0,140.61,223.46Zm34.11-2c-.37.22-1,.39-1,.65a19.85,19.85,0,0,0-.05,2.69C175,224,175.25,223.09,174.72,221.42Zm8.9,3.28h0V225c0,.83.17,1,.92,1s.48-.55.54-.93a4.51,4.51,0,0,0,0-.52c0-.6-.3-.81-1.07-.79-.55,0-.35.44-.39.73A1.13,1.13,0,0,0,183.62,224.7Zm4.06.36-.12-.05v-.33c0-.45-.05-.74-.62-.73s-.63.34-.6.77v.52c0,.69.34,1,.92.66C187.49,225.78,187.54,225.35,187.68,225.06Zm-30.39-1.3c.3-1.65.14-1.91-1-2C156.1,222.74,156.24,223.05,157.29,223.76Zm31.53.93-.11.06c.14.24.28.7.42.7.47,0,.84-.25.72-.84,0-.1,0-.24,0-.32s-.28-.47-.37-.45a1.44,1.44,0,0,0-.63.41C188.75,224.32,188.82,224.54,188.82,224.69Zm2.51-.1,1.68-1.24-.1-.2c-.43.09-.86.18-1.29.29C191,223.6,190.91,223.86,191.33,224.59Zm-54.64-3.87-.11.28,1.27,1.08L138,222c0-.34.08-.87-.1-1A3.48,3.48,0,0,0,136.69,220.72Z" transform="translate(-53.47 -116.78)"/><path class="cls-4" d="M229.1,305.4c1.17.55,2.3,1,3.38,1.6,2.85,1.55,5.67,3.16,8.52,4.72.52.29.36.6.16,1-1.88,3.51-3.74,7-5.61,10.51s-3.83,7.11-5.71,10.69c-.32.61-.61.62-1.18.35A137.91,137.91,0,0,0,206,325.65c-1.33-.36-2.67-.69-4.11-1.06.13-.59.25-1.16.39-1.72.66-2.66,1.31-5.33,2-8,.14-.53,0-.76-.51-.89-5.15-1.25-10.33-2.29-15.56-3.08a159.72,159.72,0,0,0-29.39-1.65c-4.39.15-8.78.48-13.14,1-4.94.59-9.86,1.45-14.77,2.26-2,.33-4,.87-6,1.28-.49.11-.53.35-.43.75.77,3.05,1.5,6.1,2.29,9.13.18.66,0,.87-.61,1a112.31,112.31,0,0,0-16.35,5.23c-3.29,1.33-6.53,2.8-9.77,4.24-.56.25-.78.18-1.06-.35q-5.65-10.63-11.37-21.24c-.27-.51-.18-.74.3-1a87.38,87.38,0,0,1,11.27-6c.39-.17.47-.33.27-.74-.9-1.83-1.75-3.69-2.64-5.52-.26-.53-.19-.78.38-1a166.28,166.28,0,0,1,29.76-10.06,163,163,0,0,1,64.4-2,165.35,165.35,0,0,1,40.26,12.22c.48.22.54.44.32.91C231,301.34,230.06,303.33,229.1,305.4Zm-2.2-4.67A159.45,159.45,0,0,0,178,288.43a157.34,157.34,0,0,0-73.68,11.08c-.86.34-1.7.72-2.57,1.09,2.16,4.56,4.25,9,6.32,13.37.2.42.45.42.84.29a178.65,178.65,0,0,1,21.11-5.57,151.58,151.58,0,0,1,18.37-2.63c4.69-.35,9.39-.63,14.08-.73a139.72,139.72,0,0,1,20.14,1c4,.5,8,1.05,12,1.75a146.73,146.73,0,0,1,21.52,5.52c1.34.45,2.67.94,4.06,1.43C222.48,310.27,224.67,305.56,226.9,300.73Zm4.25,10-8.3,16.54a5,5,0,0,0,.51.29c1.22.54,1,.53,1.51-.47,2-3.68,3.89-7.37,5.82-11.06L233,311.7Zm-133.52-.1c-.51.26-.91.49-1.33.68s-.43.39-.23.77c2.68,5.06,5.33,10.13,8,15.2.36.69.41.68,1.47.16.58-.28.23-.6.08-.91q-2.9-5.79-5.8-11.57C99.11,313.52,98.38,312.1,97.63,310.62Zm1.83-.88c.79,1.57,1.54,3.06,2.28,4.55,2,3.9,3.91,7.8,5.88,11.7.09.16.37.37.51.34a7.24,7.24,0,0,0,1.12-.48l-7.87-17Zm121.45,16.83,8.4-16.73-1.88-.83c-2.63,5.69-5.24,11.3-7.87,17Zm13.88-13.94-8.48,16.12.67.38c.21.1.44.18.75.3,2.84-5.3,5.67-10.6,8.53-15.95ZM102.45,328.7c-2.85-5.42-5.66-10.77-8.48-16.12l-.69.34c-.78.45-.77.45-.35,1.24l7,13.12c.37.69.76,1.36,1.16,2.07Zm117.91-9.3a10.49,10.49,0,0,0-1.57.37,1.44,1.44,0,0,0-.76.6c-.58,1.28-1.09,2.58-1.62,3.88-.12.28-.23.62.2.65s.83.76,1.21,0,.81-1.74,1.22-2.62S219.85,320.49,220.36,319.4Zm-111.8.09c.84,1.84,1.63,3.62,2.45,5.38a.46.46,0,0,0,.39.21c.39-.11.76-.28,1.17-.44-.55-1.34-1.08-2.59-1.58-3.85C110.56,319.73,109.93,319.36,108.56,319.49Zm107.2,1.05c-1.71,0-1.86.16-2.39,1.51a8.88,8.88,0,0,0-.4,1,.94.94,0,0,0,.07.59c.44.05,1,.68,1.28.15A32.23,32.23,0,0,0,215.76,320.54Zm-102.68,0c.44,1.05.86,2.1,1.32,3.13a.53.53,0,0,0,.45.19,12,12,0,0,0,1.15-.39c-.26-.67-.5-1.27-.73-1.88A1.73,1.73,0,0,0,113.08,320.55Zm7.24,1.64,0-.27-3-.64c.23.58.34,1,.52,1.3a.48.48,0,0,0,.41.19C119,322.6,119.64,322.39,120.32,322.19Zm91.11-.8-3,.61,0,.25c.74.22,1.48.45,2.22.65.07,0,.21-.09.25-.17C211.07,322.34,211.22,321.94,211.43,321.39Z" transform="translate(-53.47 -116.78)"/><path class="cls-4" d="M86.67,223.67v1.17h-1a8,8,0,0,1,.52,1.6,6.61,6.61,0,0,1,0,2.13,1.31,1.31,0,0,1-2.11.76,7.86,7.86,0,0,1-1.39.85c-.7.24-1.09-.1-1.11-.85,0-.5,0-1,0-1.52,0-.13-.15-.26-.24-.39-.09.13-.27.25-.27.38,0,1.26.05,2.53.13,3.79,0,.13.39.32.59.32,1.45,0,2.9-.06,4.35-.09h.52v1.28c-1.42,0-2.84,0-4.27,0s-1.38.14-1,1.41a.79.79,0,0,0,.62.38c1.15,0,2.29,0,3.43-.06h1.5V236l-2,.09c.76.83,1.41,1.51,2,2.24a.78.78,0,0,1-.33,1.31c-.1,0-.38-.23-.53-.41-.37-.45-.72-.92-1.14-1.46l-.15.25c-.51,1.36-.51,1.36-2,1.42-1,0-1,0-1,1l-.93.06-.74-6.73h-.22c-.37.78-.73,1.57-1.11,2.35-.12.25-.18.72-.6.4s-.72-.6-.3-1c.69-.71,1.07-1.7,2.05-2.16.17-.08.13-.59.19-.89l-.21-.07c-.75.7-1.48,1.42-2.24,2.11-.19.17-.38.61-.72.16s-.41-.67.08-1c1-.61,1.9-1.24,2.83-1.88a.6.6,0,0,0,.23-.42c0-1.61,0-3.23,0-4.84,0-1.29.11-2.57.12-3.86,0-.57-.09-1.13-.15-1.83-.72.68-1.37,1.32-2,1.93a4.43,4.43,0,0,1-.69.43,4,4,0,0,1-.48-1c0-.17.2-.46.39-.59.91-.6,1.87-1.15,2.77-1.77a1.27,1.27,0,0,0,.41-.8,3.68,3.68,0,0,0-.05-1.19.53.53,0,0,0-.44-.26,1.8,1.8,0,0,1-2.29-1.79,3.53,3.53,0,0,1,.73-2.85c.91-1,1.86-2,2.85-3a2.05,2.05,0,0,0,.78-1.64,3,3,0,0,1,.15-.84c.35-1.29.71-2.57,1.05-3.86a6.76,6.76,0,0,0,.08-1l-.52.25a1.59,1.59,0,0,1-2.37-1.58,3,3,0,0,1,2.46-3,8.22,8.22,0,0,1,1.09-.26c.66-.12,1.37-.11,1.53-1a.92.92,0,0,1,.65-.06c.17.08.38.44.32.55-.37.69,0,.89.57,1.1,1.24.44,2.44,1,3.68,1.44.52.19.58.44.4.93s-.48.44-.86.28c-1.32-.53-2.65-1-4-1.6-.43-.18-.65-.09-.78.35-.28,1-.59,2-.84,3,0,.15.2.38.31.57l.2-.07a3.94,3.94,0,0,0,.1-.47,1.81,1.81,0,0,1,1.23-1.77,2.25,2.25,0,0,1,2.34.67,3.81,3.81,0,0,1,.52.84c.3.66.2.91-.5,1.12a.65.65,0,0,1-.55-.21c-.3-.31-.51-.72-.82-1-.15-.15-.59-.27-.66-.19a2.84,2.84,0,0,0-.59,1c0,.13.25.45.45.53.81.32,1.64.61,2.48.86.53.15.55.41.4.87s-.45.45-.81.33l-.59-.21c-.13.45-.22.85-.36,1.23a1.8,1.8,0,0,1-1.45,1.29c-1.55.25-2.37-.55-2.14-2.11.13-.91.23-1.1.77-1.41l-.72-.32a8.3,8.3,0,0,0-.31.81c-.29,1.14-.52,2.3-.85,3.43-.17.6.06.77.57.89,1.52.35,3,.73,4.59,1.11,0,.23,0,.42-.07.61,0,.48-.28.61-.75.48-1.4-.37-2.82-.68-4.22-1-.52-.13-.57,0-.66.54-.15,1,.39,1,1,1.11s1.4.36,2.11.51c.32.08.55.26.32.54A4.88,4.88,0,0,1,83.59,215a4.08,4.08,0,0,1-.06-.42c0-.8-.28-1.07-1.07-1.07-.12,0-.34.11-.36.2-.09.51-.13,1-.18,1.56a1.23,1.23,0,0,0,0,.19c0,.3-.15.74,0,.85a2.29,2.29,0,0,0,1,.35c1.23.24,2.46.49,3.69.67.61.09.47.44.43.81s-.27.49-.67.41c-1.38-.29-2.77-.53-4.15-.79-.76-.14-1,.15-.79.88a1,1,0,0,1,0,.51c-.19.61,0,.8.65.87,1.54.17,3.08.42,4.69.65l-.11,1.19-3.7-.5-1.31-.18c-.45-.07-.59.19-.55.59,0,.12.08.25.09.38.08,1.09.08,1.06,1.2,1.13C83.88,223.41,85.27,223.55,86.67,223.67Zm-4,2.58v2.65l.25,0a5.31,5.31,0,0,0,.22-.75,11.7,11.7,0,0,0,.07-1.19c0-.55.3-.7.79-.64.13,1.52.13,1.52.79,1.93a5.62,5.62,0,0,0,.53-.87,4.91,4.91,0,0,0-1-2.64.61.61,0,0,0-.3-.13c-.81-.07-1.61-.14-2.42-.17a.56.56,0,0,0-.44.28c-.34.91,0,1.42,1,1.45A4.07,4.07,0,0,1,82.67,226.25Zm-1.39-15.08a6.49,6.49,0,0,0-2.58,3.53,1.25,1.25,0,0,0,.67,1.6,1.58,1.58,0,0,0,1.15-.1c.17-.09.13-.59.17-.91a4.18,4.18,0,0,1,0-.71c.17-.77.4-1.52.55-2.29A5.86,5.86,0,0,0,81.28,211.17ZM84.6,199a3.43,3.43,0,0,0-2.83,1.34A.91.91,0,0,0,82,201.7c.39.21,1.67-.08,1.8-.43C84.06,200.55,84.3,199.83,84.6,199ZM82.54,238.2a4.53,4.53,0,0,0,.64,0,.94.94,0,0,0,.81-1,1,1,0,0,0-.8-1.06c-1.35-.28-1.57,0-1.53,1.33C81.68,238.16,81.9,238.42,82.54,238.2Zm2.61-32.06c.14.61.51,1.11.89,1.09s.9-.69.91-1.28a.93.93,0,0,0-1.07-.79C85.56,205.27,85.39,205.8,85.15,206.14Z" transform="translate(-53.47 -116.78)"/><path class="cls-4" d="M92.07,263l1.21-2.3c1,.45,1.11.76.65,1.56-.71,1.24-1.41,2.48-2.14,3.71-.13.22-.2.73-.62.42s-.85-.5-.56-1.11a2.08,2.08,0,0,0,.33-.71,1.28,1.28,0,0,0-.25-.81.89.89,0,0,0-.68-.14,6.31,6.31,0,0,0-1,.38l2,4.31,3.24-1.4c.46-.19.93-.38,1.39-.6s.62,0,.79.38.16.64-.29.82c-1.34.55-2.66,1.15-4,1.7-.51.2-.56.45-.27.87s.52.8.8,1.24c1.44-.74,2.85-1.45,4.24-2.19.44-.24.68-.29,1,.25s.06.74-.38.92c-.18.07-.35.18-.53.27-1.28.66-1.29.7-.32,1.9a1,1,0,0,0,.17,0c1.06-.55,1.25-.44,1.21.74a3.78,3.78,0,0,1-.2,1.17c-.1.26-.36.61-.59.65s-.55-.24-.81-.39a1.7,1.7,0,0,1-.25-.3l-1.38.81,0,.26.94.06s0,0,.08.09c.1.32.6.62.17,1a1,1,0,0,1-1.39,0,4.64,4.64,0,0,1-.82-1.72c-.06-.25.26-.67.51-.89a8.85,8.85,0,0,1,1.28-.81l-.83-1.37c-.34.17-.61.32-.88.44-.48.2-.74.44-.37,1,.2.29.07.53-.25.68s-.61.18-.81-.22c-.81-1.64-1.64-3.25-2.44-4.89-1-2.06-2-4.14-3-6.22-.25-.53-.4-1.11-.61-1.67-.83-2.13-1.67-4.27-2.55-6.5a3.44,3.44,0,0,0-1.59,2.23,1.88,1.88,0,0,0,.39,1.12c.24.4.62.38,1,.08s.44-.42.65-.64a1.29,1.29,0,0,1,.08,1.64,1.66,1.66,0,0,1-2.09.37,2.36,2.36,0,0,1-1.08-2.13A4.1,4.1,0,0,1,82.49,254c.26-.3.59-.54.84-.84a.75.75,0,0,0,.18-.54c-.28-1.21-.63-2.41-.91-3.62s-.57-2.61-.85-3.92c0-.14,0-.29,0-.48l.89-.18c.07.06.12.08.13.11.36,1.05.36,1.05,1.49.85l3.56-.66c.19,0,.39,0,.67,0l.16,1.1-1.14.29c.21.67.45,1.25.58,1.86a2.58,2.58,0,0,1-1.62,3c-.12,0-.4-.12-.5-.26s-.25-.69-.49-.88a1,1,0,0,0-.93-.13,1.08,1.08,0,0,0-.42.89,13.67,13.67,0,0,0,.68,2.32c0,.11.4.2.57.15,1.35-.37,2.7-.78,4-1.17.24-.07.5-.1.74-.15.47,1.07.44,1.13-.61,1.43-1.25.35-2.49.73-3.74,1.06-.53.14-.62.39-.36.85.56,1,.55,1,1.66.66l3.1-.92c1-.31,1.11-.26,1.26.94-.8.24-1.6.51-2.42.71-.47.12-.62.32-.44.79s.31,1,.53,1.48c.31.67.73.78,1.23.26a12.42,12.42,0,0,0,1-1.53c.12-.17.39-.38.53-.35.34.07.49.34.29.71-.39.72-.75,1.48-1.17,2.19a1.51,1.51,0,0,1-1.61.64,1.35,1.35,0,0,1-1.18-1.09c-.2-.69-.45-1.37-.67-2.06-.12-.37-.28-.54-.72-.39s-.32.44-.22.73c.42,1.2.83,2.41,1.28,3.6a4.78,4.78,0,0,0,.6,1.08.6.6,0,0,0,.5.13,4.06,4.06,0,0,0,.73-.28C90.93,261.83,91.19,261.89,92.07,263Zm-5.41-14.08a1.09,1.09,0,0,0,.28-1.49,1.45,1.45,0,0,0-1.9-.9l-1.81.37.43,1.66C84.78,247.83,85.56,247.93,86.66,248.88Z" transform="translate(-53.47 -116.78)"/><path class="cls-4" d="M94.6,191.07v1.3l-4.9.82c-.08-.22-.14-.41-.2-.59-.14-.4-.09-.66.42-.72a7.74,7.74,0,0,0,1-.31l.05-.23-1.58-1c-.43.83-.85,1.57-1.22,2.33-.19.39-.36.62-.85.38s-.4-.53-.2-.9l1.71-3.27a31.07,31.07,0,0,0,1.79-3.49c.72-1.95,2.15-3.44,3.15-5.19a3.58,3.58,0,0,0,.33-.84,2.1,2.1,0,0,1,1.42-1.67,2.26,2.26,0,0,1,2.29.41,1.89,1.89,0,0,1,.37,2.3l-.21.39.11.18c.26-.15.65-.23.77-.46a15.19,15.19,0,0,0,1-2.27.89.89,0,0,0-.27-.74c-.49-.46-1-.86-1.62-1.31-.18.26-.37.47-.51.71s-.48.47-.87.23a.55.55,0,0,1-.18-.89c.49-.67,1-1.35,1.52-2,1.65-1.93,3.31-3.86,5-5.76.73-.84,1.52-1.62,2.28-2.43.28-.3.55-.49.94-.1s.28.69-.1,1a4.18,4.18,0,0,0-.34.36c1.11,1.17,2.18,2.33,3.28,3.46.4.41.41.71,0,1.09a.56.56,0,0,1-.9-.07c-.52-.58-1.07-1.15-1.64-1.76l-1.25,1.31a.91.91,0,0,0,0,.16l.51,1.05a11.66,11.66,0,0,1-1.16.31,2,2,0,0,1-.85,0c-.25-.06-.59-.2-.67-.4a.86.86,0,0,1,.17-.76c.62-.71,1.3-1.37,2-2.06.13-.14.24-.3.4-.49l-.79-.85-4.08,4.4a5.37,5.37,0,0,1,.77.46c1,.87,2,1.78,3,2.66.33.29.55.54.17,1s-.64.43-1,.06c-1-.92-2-1.82-3-2.72-.17-.16-.36-.32-.58-.51l-1.26,1.64a3.07,3.07,0,0,1,.51.26c1.14.89,2.26,1.81,3.4,2.7.34.26.43.5.13.87s-.56.54-1,.18-.55-.43-.85-.67c-.22.66-.38,1.26-.61,1.84a2.73,2.73,0,0,1-2.71,1.81,2,2,0,0,0-.78.36c-.17.09-.28.29-.45.35-.67.24-.16.83-.39,1.19a4,4,0,0,0,.76.11c.59,0,1.17-.12,1.88-.2l-.2,1.28-5,.3-.17-1.15,1.63-.31,0-.24-1.54-1.16-2.07,3.66,3.09,1.79c.44.25.87.52,1.32.74s.33.52.16.86-.4.52-.78.29l-1.88-1.07a10.49,10.49,0,0,0-1.22,1.38c-.15.24,0,.69,0,1a1.45,1.45,0,0,0,.7,0C93.39,191.37,94,191.21,94.6,191.07Zm1-8.36c.26-.48.48-.91.71-1.32.08-.15.16-.34.3-.4a1.06,1.06,0,0,0,.64-1.27,1.11,1.11,0,0,0-1.08-1,1.65,1.65,0,0,0-1,.4.76.76,0,0,0,0,.62,4.68,4.68,0,0,0,.86.16c.18,0,.44,0,.51.14s0,.46-.1.52a2.59,2.59,0,0,1-1.16.48.91.91,0,0,0-1,.72Zm-4.82,5L90,189.26l.78.4.67.33C92.38,188.68,92.26,188.26,90.81,187.72Z" transform="translate(-53.47 -116.78)"/><path class="cls-4" d="M119.87,156l2.52,4a.7.7,0,0,1-.52,1.18.46.46,0,0,1-.37-.17,4.43,4.43,0,0,1-.42-.59c-.41.31-.76.61-1.15.85a2,2,0,0,1-2.63-.32,2.09,2.09,0,0,1,.19-2.86,1.41,1.41,0,0,1,1.83-.46l-.58-.91c-1.47,1-3.12,1.73-4.28,3.14q1.37,1.92,2.7,3.82c.12.16.18.35.3.5s.26.37.43.42a1.61,1.61,0,0,1,.79,2.87,5.79,5.79,0,0,1-4.48,1.58l-.08-1.15a3.33,3.33,0,0,0,3.75-1.53c-.54-.7-.67-.71-1.24-.14-.13.12-.25.35-.37.35a3.83,3.83,0,0,1-.87-.17,2.92,2.92,0,0,1,.15-.65,2.26,2.26,0,0,1,.36-.47c.12-.15.26-.29.43-.48l-1.42-2L113.36,164a2.86,2.86,0,0,1,.27.42c.11.27.2.55.29.83a3.79,3.79,0,0,1-.87.12,12.77,12.77,0,0,1-1.61-.33c-.17,0-.41-.17-.43-.29a1.09,1.09,0,0,1,.18-.58,1.79,1.79,0,0,1,.34-.29l-.85-1.13c-.36.26-.71.49-1,.75s-.57.1-.8-.18a.47.47,0,0,1,.09-.78l2-1.47c1.11-.85,2.2-1.74,3.33-2.56,1.7-1.22,3.39-2.45,5.14-3.6,1.24-.82,2.57-1.5,3.85-2.24l.72-.43c-.35-.09-.58-.13-.79-.2a1.65,1.65,0,0,1-1-1.92,1.29,1.29,0,0,1,1.45-1c.17,0,.33.21.49.32-.11.14-.21.28-.33.41s-.69.51-.66.71a1.48,1.48,0,0,0,.65.9,1.25,1.25,0,0,0,1.58.12c.29-.22.63-.41.9.13s0,.72-.38.9a1.38,1.38,0,0,0-.31.2.5.5,0,0,0,0,.15c.58,1.27.58,1.27-.69,1.95a4.9,4.9,0,0,0-1,.56c-.14.12-.14.41-.21.63a2.09,2.09,0,0,0,.81.09c.19,0,.33-.33.5-.5.76-.85,1.63-1,2.24-.5a1.91,1.91,0,0,1,.08,2.71l-.35.39,1.49.1c0,1-.16,1.07-1.08.92a4.13,4.13,0,0,0-2.69,0,1.32,1.32,0,0,1-.71,0c-.39-.06-.62-.33-.47-.69a1.31,1.31,0,0,1,.6-.63,1.45,1.45,0,0,1,.72,0A1.5,1.5,0,0,0,126.5,157c.07-.24-.09-.55-.14-.82-.24.07-.57.07-.68.22-.77,1.06-1.8.84-2.81.59a1.19,1.19,0,0,1-.76-.65,1.24,1.24,0,0,1,.47-1.52c.5-.28,1-.51,1.52-.79.1-.06.14-.23.21-.35-.11,0-.25-.09-.33,0A17.19,17.19,0,0,0,119.87,156Zm-8.14,5.87.89,1.15,1.6-1.22-.86-1.18Zm8.46-2.13h-2C118.59,160.81,119.38,160.87,120.19,159.77Zm-.07-.93-.6-.88-1.06.72.08.16Z" transform="translate(-53.47 -116.78)"/><path class="cls-4" d="M244.79,254.42c-.33-.14-.66-.29-1-.4-.85-.3-1.7-.61-2.56-.86-.5-.14-.4-.41-.29-.75s.15-.69.69-.5c1.76.62,3.53,1.21,5.3,1.79.36.11.45.3.33.63l0,.06c-.4,1.32-.4,1.33-1.79,1.23-.94-.07-1.88-.18-2.82-.27a1.1,1.1,0,0,0-.67.14c.67.42,1.34.85,2,1.26.52.32,1,.66,1.58.95a.6.6,0,0,1,.3.82c-.16.43-.31.86-.48,1.36-.4-.11-.78-.2-1.15-.32-1.46-.49-2.91-1-4.37-1.47-.43-.14-.75-.25-.55-.86s.45-.58.93-.41c.88.32,1.78.6,2.68.9a1.22,1.22,0,0,0,.74,0c-.48-.31-1-.63-1.45-.93l-1.58-.95a.9.9,0,0,1-.32-1.49.72.72,0,0,1,.55-.18c1,.09,1.92.22,2.88.31.34,0,.68,0,1,0Z" transform="translate(-53.47 -116.78)"/><path class="cls-4" d="M240,264.81a5.85,5.85,0,0,1-1.29.13,1.69,1.69,0,0,1-1.57-2.2,25,25,0,0,1,1.39-3.46c0-.09.36-.15.49-.1,1.73.78,3.46,1.59,5.2,2.38.37.17.35.38.21.68-.35.75-.7,1.51-1,2.27s-.66,1.36-1.55,1.42S240.25,265.73,240,264.81Zm-.71-4c-.07,0-.18.07-.21.13a10.29,10.29,0,0,0-.75,1.87c0,.22.37.61.65.79s.58-.07.7-.24a13.09,13.09,0,0,0,.87-1.61.37.37,0,0,0-.07-.34C240.12,261.17,239.72,261,239.31,260.79Zm2.45,1.13a14.06,14.06,0,0,0-.76,1.84c-.05.21.22.58.44.76s.53,0,.63-.2c.36-.55.65-1.15,1-1.78Z" transform="translate(-53.47 -116.78)"/><path class="cls-4" d="M246.87,243.36a1.94,1.94,0,0,1-2.33.37,1.72,1.72,0,0,1-1-1.91c.08-1.14.22-2.26.35-3.49l6.56.75c-.22,1.4-.38,2.78-.69,4.13C249.56,244.19,247.69,244.41,246.87,243.36Zm-2.18-2c0,.7.21,1.13.74,1.21a1,1,0,0,0,.81-.45,9.45,9.45,0,0,0,.35-1.85.31.31,0,0,0-.17-.25,4.81,4.81,0,0,0-1.35-.14c-.13,0-.21.54-.29.84A4.33,4.33,0,0,0,244.69,241.32Zm2.86.36c0-.07,0,0,0,.1,0,.47.18.87.65.92s.68-.33.74-.77.08-.78.16-1.16-.07-.54-.46-.59c-.88-.13-.92-.13-1,.75C247.58,241.13,247.57,241.32,247.55,241.68Z" transform="translate(-53.47 -116.78)"/><path class="cls-4" d="M242.21,196.63l-3.87,1.51c-.12-.27-.23-.48-.32-.69-.16-.37-.07-.59.34-.75,1.6-.6,3.19-1.26,4.79-1.85.27-.11.84-.14.89,0,.22.46.63.93.15,1.51-.87,1-1.68,2.08-2.52,3.13,0,.05-.06.11-.19.32.34-.09.55-.14.75-.21.88-.34,1.76-.68,2.63-1.05.49-.2.68,0,.86.43s0,.66-.38.82c-1.58.61-3.14,1.26-4.72,1.85-.28.11-.82.14-.91,0-.26-.42-.56-.91-.11-1.45.87-1.05,1.7-2.12,2.55-3.19a1.43,1.43,0,0,0,.14-.2Z" transform="translate(-53.47 -116.78)"/><path class="cls-4" d="M140.12,150.7c-.24-.76-.48-1.52-.73-2.28a8,8,0,0,0-.31-.94c-.25-.52-.05-.73.45-.88s.63-.1.77.36c.53,1.68,1.11,3.33,1.63,5,.08.25.06.73-.06.78-.42.19-.87.58-1.38.11-.92-.84-1.86-1.67-2.8-2.51a1.2,1.2,0,0,0-.64-.3c.1.32.2.64.31,1,.26.81.51,1.63.8,2.43.18.51-.1.64-.51.77s-.63.09-.77-.37c-.51-1.63-1.07-3.25-1.58-4.88-.09-.28-.09-.84,0-.9.47-.2,1-.55,1.52-.05.88.83,1.79,1.62,2.69,2.43l.44.35Z" transform="translate(-53.47 -116.78)"/><path class="cls-4" d="M247,225.55l1-.07c.07.89.13,1.75.2,2.68l-3.62.26.42-1.33a3,3,0,0,1-.23-3.67,1.78,1.78,0,0,1,.58-.61,4.47,4.47,0,0,1,4.22-.39,2.12,2.12,0,0,1,1.44,1.75,8.26,8.26,0,0,1-.08,2.53,1.77,1.77,0,0,1-1.67,1.32c-.07-.65-.28-1.2.35-1.74a1.55,1.55,0,0,0-.51-2.53,2.82,2.82,0,0,0-3.12.41,1.55,1.55,0,0,0-.45,1.63A1.77,1.77,0,0,0,247,227c0-.28.05-.51.05-.73S247,225.85,247,225.55Z" transform="translate(-53.47 -116.78)"/><path class="cls-4" d="M218.13,169a3.08,3.08,0,0,1-3.15-3.17,3.8,3.8,0,0,1,3.54-3.65,3.16,3.16,0,0,1,3.21,3.15C221.75,166.83,220.07,169.13,218.13,169Zm2.29-3.9a1.7,1.7,0,0,0-2.35-1.5,3.58,3.58,0,0,0-1.71,1.94,1.79,1.79,0,0,0,1.66,2.23A3.34,3.34,0,0,0,220.42,165.06Z" transform="translate(-53.47 -116.78)"/><path class="cls-4" d="M159.84,145.29c0,.67.07,1.35.11,2s.06,1.35.1,2.08l-1.23.13-.38-6.48c1.24-.32,1.41-.26,2.06.75l2,3,.24,0-.19-4,1.22,0,.37,6.44c-1.28.29-1.33.28-2-.7l-2.07-3.18Z" transform="translate(-53.47 -116.78)"/><path class="cls-4" d="M243.8,208c-1.85,0-3-1.24-3-3.26s1.56-3.22,3.88-3.22a3,3,0,0,1,3,3.18C247.7,206.7,246.16,208,243.8,208Zm0-1.17a17.06,17.06,0,0,0,2-1,1.37,1.37,0,0,0,.65-1.59,1.71,1.71,0,0,0-1.38-1.34,2.94,2.94,0,0,0-2.51.87,1.45,1.45,0,0,0-.48,1.71A2.3,2.3,0,0,0,243.83,206.85Z" transform="translate(-53.47 -116.78)"/><path class="cls-4" d="M242,248.47a3,3,0,0,1,3.68-3.17l.64.13a3.17,3.17,0,1,1-1.59,6.11C242.9,251.15,242.05,250.17,242,248.47Zm3.51,1.85a2,2,0,0,0,2.11-1.27,1.43,1.43,0,0,0-.71-1.8,5,5,0,0,0-2-.63,1.75,1.75,0,0,0-1.75,1.33,1.63,1.63,0,0,0,.87,1.82A11.56,11.56,0,0,0,245.55,250.32Z" transform="translate(-53.47 -116.78)"/><path class="cls-4" d="M141.88,145.84c1.07-.26,2.1-.56,3.16-.73a2.28,2.28,0,0,1,2.59,1.45,5.32,5.32,0,0,1,.42,3,2.13,2.13,0,0,1-1.65,1.91c-.82.23-1.65.46-2.48.63a.66.66,0,0,1-.57-.25c-.52-1.88-1-3.77-1.47-5.66A2.15,2.15,0,0,1,141.88,145.84Zm5,3a11.92,11.92,0,0,0-.43-1.44,1.7,1.7,0,0,0-2.7-.81.53.53,0,0,0-.2.42c.27,1.14.58,2.28.9,3.42a.47.47,0,0,0,.3.27A2,2,0,0,0,146.83,148.86Z" transform="translate(-53.47 -116.78)"/><path class="cls-4" d="M172.12,145.38l-.37,4.15-1.24-.08L171,143c1.26-.2,1.36-.14,1.86.9s.86,1.83,1.29,2.74c.1.21.22.41.34.62h.2l.39-4,1.22.09c-.17,2.16-.34,4.29-.51,6.41-1.25.19-1.35.13-1.83-.9s-1.1-2.33-1.64-3.49Z" transform="translate(-53.47 -116.78)"/><path class="cls-4" d="M247.42,214.74a2.68,2.68,0,0,1,3,2.13,3.09,3.09,0,0,1-1.12,3.57,4.45,4.45,0,0,1-4,.28,2.64,2.64,0,0,1-1.2-1.14c-1.22-2.37,0-4.59,2.68-4.84C247,214.72,247.2,214.74,247.42,214.74Zm-.09,1.16a9.09,9.09,0,0,0-1.88.83,1.52,1.52,0,0,0,.13,2.59,2.53,2.53,0,0,0,2.51.12,1.77,1.77,0,0,0,1.27-1.9A2.25,2.25,0,0,0,247.33,215.9Z" transform="translate(-53.47 -116.78)"/><path class="cls-4" d="M233.28,178.32l-1,.76c.5.72,1,1.4,1.46,2.06.27.36.32.63-.11.92s-.64.24-.92-.17c-.45-.69-1-1.36-1.48-2.08l-1.29.93c.58.82,1.13,1.61,1.69,2.39.24.33.43.59,0,.92s-.67.28-1-.16c-.7-1-1.43-2-2.16-3.06-.27-.37-.31-.61.12-.91,1.48-1,2.94-2.08,4.4-3.13.35-.25.61-.27.87.11.71,1,1.44,2,2.17,3.06a.5.5,0,0,1-.12.83c-.37.25-.64.31-.93-.13C234.42,179.88,233.86,179.13,233.28,178.32Z" transform="translate(-53.47 -116.78)"/><path class="cls-4" d="M211,157.58l-.72,1.08c.74.47,1.42.94,2.14,1.36.45.27.47.52.2.95s-.52.36-.86.13c-.7-.46-1.4-.89-2.16-1.37l-.86,1.36c.86.55,1.68,1.1,2.51,1.61.37.22.5.43.25.83s-.5.51-.91.24q-1.62-1.07-3.27-2.1a.46.46,0,0,1-.16-.76c1-1.59,2-3.18,3-4.78.22-.35.46-.26.72-.1,1.07.69,2.12,1.4,3.2,2.07.4.25.35.49.15.82s-.43.49-.8.25Z" transform="translate(-53.47 -116.78)"/><path class="cls-4" d="M240.43,192.61c.64-.32,1.2-.58,1.73-.86s.68.1.86.46.26.62-.21.84c-1.64.78-3.27,1.59-4.89,2.41-.43.23-.67.14-.86-.31s-.33-.76.25-1,1.06-.52,1.6-.78c.35-.16.41-.38.22-.72-.31-.57-.59-1.16-.89-1.74-.75.37-1.41.68-2,1-.46.25-.7.11-.91-.35s-.26-.69.25-.93c1.64-.79,3.26-1.61,4.88-2.43.52-.26.65,0,.82.41s.37.7-.2.88l-.06,0-1.56.93Z" transform="translate(-53.47 -116.78)"/><path class="cls-4" d="M182.73,146.43c-.61-.06-1.16,0-1.43-.74a1.24,1.24,0,0,0-1.46-.66,1.19,1.19,0,0,0-.72.64c-.06.13.25.54.47.67.65.36,1.35.64,2,1a1.49,1.49,0,0,1,.89,1.48c0,1.19-.57,1.93-1.74,2a7.17,7.17,0,0,1-2.43-.37,1.72,1.72,0,0,1-1.06-2.17c.54,0,1.07-.13,1.32.65a1.62,1.62,0,0,0,1.92.78,1.23,1.23,0,0,0,.61-.62c0-.14-.18-.5-.37-.61-.57-.33-1.17-.59-1.77-.87a1.89,1.89,0,0,1,.79-3.66,5.77,5.77,0,0,1,1.49.22A1.94,1.94,0,0,1,182.73,146.43Z" transform="translate(-53.47 -116.78)"/><path class="cls-4" d="M199.49,157.2a3.46,3.46,0,0,1-2-.86,1.87,1.87,0,0,1-.63-2.14c.53-1.44,1.16-2.84,1.82-4.22.27-.56.68,0,1,0s.42.27.27.59q-.81,1.75-1.59,3.54a1.14,1.14,0,0,0,.6,1.68c.66.33,1.16.18,1.55-.6.56-1.11,1.08-2.25,1.57-3.4.22-.51.48-.51.92-.32s.71.36.44.92c-.58,1.18-1.09,2.39-1.67,3.57C201.35,156.9,200.78,157.22,199.49,157.2Z" transform="translate(-53.47 -116.78)"/><path class="cls-4" d="M233.44,269.91c.13-1.08.37-1.3,1.32-1.19a.7.7,0,0,0,.84-.43c.24-.54.51-1.07.85-1.76a2.32,2.32,0,0,1-.64-.49,1.13,1.13,0,0,1-.19-.8c.28-1,.48-1,1.18-.27,1.24,1.3,2.48,2.6,3.74,3.89a.71.71,0,0,1,.16,1c-.25.39-.26,1-1,.86C237.61,270.4,235.52,270.17,233.44,269.91Zm3.14-1,2.22.35,0-.18-1.55-1.52Z" transform="translate(-53.47 -116.78)"/><path class="cls-4" d="M157.91,149.59a4.33,4.33,0,0,1-1.11.12.94.94,0,0,1-.52-.55c-.21-.54-.49-.8-1.09-.61a2.06,2.06,0,0,1-.66.06c-.65,0-1.09.2-1.14.95,0,1-.94.43-1.36.76l-.16-.1c.51-2.23,1-4.45,1.54-6.69.47-.06.9-.13,1.34-.15a.55.55,0,0,1,.4.24c.94,1.91,1.85,3.83,2.77,5.75C157.94,149.4,157.92,149.45,157.91,149.59Zm-3.37-4.25h-.27c-.13.63-.27,1.26-.36,1.89,0,.09.2.3.3.3.38,0,.76-.11,1.22-.18Z" transform="translate(-53.47 -116.78)"/><path class="cls-4" d="M236.46,188.87a2.77,2.77,0,0,1-3.44-.8,3,3,0,0,1,0-3.73,4.26,4.26,0,0,1,3.26-1.63,2.59,2.59,0,0,1,2.46,1.36,3,3,0,0,1,.14,3c-.11.23-.47.34-.71.51-.17-.42-.55-.91-.45-1.25.29-.93.34-1.2-.26-1.82a1.36,1.36,0,0,0-1.85-.25,7.49,7.49,0,0,0-1.63,1.28,1.07,1.07,0,0,0-.14,1.45c.36.51.75,1,1.49.85S236.09,188.44,236.46,188.87Z" transform="translate(-53.47 -116.78)"/><path class="cls-4" d="M224.15,168l-.93,1c.55.52,1.06,1,1.6,1.51.38.34.38.61,0,1s-.61.26-.93-.05c-.51-.52-1-1-1.6-1.52-.51.54-1,1-1.46,1.56s-.62.28-.93,0-.57-.58-.18-1l3.81-4c.29-.31.55-.27.84,0q1.28,1.24,2.58,2.46c.34.3.35.55,0,.88s-.56.38-.89.06Z" transform="translate(-53.47 -116.78)"/><path class="cls-4" d="M235.84,277.61c-.45-.79-.92-1.5-1.28-2.27a5.12,5.12,0,0,0-2.48-2.68c-.56-.25-.49-.57-.21-1s.61-.55,1-.19c1.27,1.2,2.87,1.13,4.44,1.21l1.57.12c-.23,1.06-.56,1.31-1.5,1.22l-2.28-.25,1.15,1.79C236.82,276.43,236.76,276.74,235.84,277.61Z" transform="translate(-53.47 -116.78)"/><path class="cls-4" d="M230.36,174.7c-1.2,1-2.36,2-3.49,3-.44.39-.72.43-1.13-.05s-.27-.73.14-1.07c1.17-1,2.31-2,3.5-3-.3-.38-.57-.74-.87-1.08s-.18-.64.15-.92.55-.21.82.11c.88,1.07,1.78,2.11,2.69,3.16.3.34.35.62,0,1s-.63.32-.92-.08S230.69,175.08,230.36,174.7Z" transform="translate(-53.47 -116.78)"/><path class="cls-4" d="M244.45,232.75v-1.28a12.63,12.63,0,0,0,1.51,0,5.92,5.92,0,0,0,1.62-.4c1-.42,1.87-.95,2.81-1.43a5.22,5.22,0,0,1,.63-.23c0,.34,0,.57,0,.8a.91.91,0,0,1-.7,1.08c-.66.23-1.28.56-2.09.93.6.31,1.07.56,1.54.79,1.22.61,1.22.61,1.07,2.07a6.54,6.54,0,0,1-.64-.26c-.69-.39-1.4-.75-2.06-1.19a4.42,4.42,0,0,0-3-.84A3.88,3.88,0,0,1,244.45,232.75Z" transform="translate(-53.47 -116.78)"/><path class="cls-4" d="M206.05,154.53c-.46-.28-.86-.55-1.28-.78s-.25-.5-.1-.81.36-.47.72-.27q1.89,1.13,3.79,2.24c.45.26.29.55.11.88s-.41.41-.74.2-.76-.45-1.22-.72c-.27.43-.54.85-.79,1.27-.57.94-1.15,1.87-1.67,2.84-.24.45-.46.48-.86.22s-.72-.42-.39-1C204.42,157.31,205.2,156,206.05,154.53Z" transform="translate(-53.47 -116.78)"/><path class="cls-4" d="M192.19,148.38l.3-1.12,5.08,1.69-.34,1.14c-.47-.16-.88-.28-1.29-.44s-.65-.12-.8.4c-.4,1.34-.91,2.65-1.32,4-.16.5-.38.53-.81.37s-.74-.28-.53-.87c.48-1.29.87-2.61,1.33-3.91.17-.47.08-.7-.4-.82A12.88,12.88,0,0,1,192.19,148.38Z" transform="translate(-53.47 -116.78)"/><path class="cls-4" d="M189.3,146.06l-.22,1.11c-.4-.08-.78-.13-1.15-.23-.8-.19-.82-.19-1,.62-.35,1.44-.68,2.89-1,4.42l-1.33-.27c.14-.65.26-1.24.4-1.83.23-1,.46-1.93.71-2.88.11-.4,0-.64-.41-.7a4.23,4.23,0,0,1-.51-.13c-.93-.24-.93-.24-.57-1.33Z" transform="translate(-53.47 -116.78)"/><path class="cls-4" d="M244.43,214.27l-1.14.25c-.34-1.43-.67-2.8-1-4.19,0-.12.19-.39.34-.42,1.82-.46,3.66-.88,5.49-1.32.55-.14.52.26.62.59s.15.67-.36.78c-1.3.29-2.59.61-3.89.92-.83.19-.83.18-.64,1S244.24,213.43,244.43,214.27Z" transform="translate(-53.47 -116.78)"/><path class="cls-4" d="M135.91,154.81l-.13.13c-1.07.53-1.11.51-1.51-.6-.55-1.53-1.1-3.05-1.69-4.56-.22-.56,0-.72.48-.9s.68-.08.85.41c.59,1.68,1.23,3.33,1.84,5A4.33,4.33,0,0,1,135.91,154.81Z" transform="translate(-53.47 -116.78)"/><path class="cls-4" d="M191.51,146.83c-.48,1.72-.94,3.37-1.39,5l-.12.45c-.24.88-.33.92-1.16.64-.31-.11-.39-.27-.3-.59.52-1.84,1-3.68,1.55-5.51a.65.65,0,0,1,.52-.27A4.85,4.85,0,0,1,191.51,146.83Z" transform="translate(-53.47 -116.78)"/><path class="cls-4" d="M150,144.07c.36,2.19.71,4.29,1.07,6.44l-1.34.23-1.07-6.46Z" transform="translate(-53.47 -116.78)"/><path class="cls-4" d="M168.13,142.82h1.21v6.43H168A1.29,1.29,0,0,1,168,149C168,146.94,168.07,144.9,168.13,142.82Z" transform="translate(-53.47 -116.78)"/><path class="cls-4" d="M89.42,185.16a5.44,5.44,0,0,1-.84.87c-.06.05-.57-.37-.54-.44a2,2,0,0,1,.59-.82C88.72,184.7,89.06,185,89.42,185.16Z" transform="translate(-53.47 -116.78)"/><path class="cls-4" d="M111.71,158.87c-.21-.36-.5-.69-.44-.77a2,2,0,0,1,.79-.64c.06,0,.5.46.46.53A5.07,5.07,0,0,1,111.71,158.87Z" transform="translate(-53.47 -116.78)"/><path class="cls-4" d="M157,249.72l0-.66a8.94,8.94,0,0,1,3.84.88.58.58,0,0,1,.18.44c-.2.17-.51.46-.69.41C159.28,250.49,158.2,250.1,157,249.72Z" transform="translate(-53.47 -116.78)"/><path class="cls-4" d="M140.25,256.36h-3.37v-1h3.37Z" transform="translate(-53.47 -116.78)"/><path class="cls-4" d="M144.37,251.14H140.6v-.84h3.74Z" transform="translate(-53.47 -116.78)"/><path class="cls-4" d="M145.87,255.91l-.2-1c.87-.13,1.66-.3,2.46-.36s.4.58.64,1Z" transform="translate(-53.47 -116.78)"/><path class="cls-4" d="M144.54,256l-2.9.24,0-1,2.88-.28Z" transform="translate(-53.47 -116.78)"/><path class="cls-4" d="M157.36,253.94c.76.29,1.53.57,2.28.89a.58.58,0,0,1,.15.47c-.22.2-.54.51-.76.46a5.38,5.38,0,0,1-1.69-.67c-.18-.13-.12-.63-.18-1Z" transform="translate(-53.47 -116.78)"/><path class="cls-4" d="M138.64,253.73c-.08-1,0-1,.76-.92.65,0,1.3,0,2,0v.91Z" transform="translate(-53.47 -116.78)"/><path class="cls-4" d="M159,247.6c.09-.86.1-.88.87-.66a8.8,8.8,0,0,1,1.4.54c.18.1.41.41.37.54a.53.53,0,0,1-.78.36C160.2,248.12,159.57,247.87,159,247.6Z" transform="translate(-53.47 -116.78)"/><path class="cls-4" d="M149.82,254.17l2.28-.35.16,1a11.57,11.57,0,0,1-1.95.34c-.2,0-.41-.51-.62-.78Z" transform="translate(-53.47 -116.78)"/><path class="cls-4" d="M156.82,251.45l-.19.88h-2.56l-.06-.88Z" transform="translate(-53.47 -116.78)"/><path class="cls-4" d="M158,252.68c.12-.89.21-1,1-.72a4.56,4.56,0,0,1,1,.42c.19.12.44.44.39.57a.58.58,0,0,1-.82.39Z" transform="translate(-53.47 -116.78)"/><path class="cls-4" d="M145.55,253.57l-2.6.26,0-.94c.76-.07,1.49-.18,2.23-.19S145.49,253.19,145.55,253.57Z" transform="translate(-53.47 -116.78)"/><path class="cls-4" d="M148.46,250.89l-2.53.24-.09-.85c.75-.1,1.46-.23,2.17-.26S148.42,250.48,148.46,250.89Z" transform="translate(-53.47 -116.78)"/><path class="cls-4" d="M154.63,246.67l.1.86-1.93.44c-.39.09-.55-.16-.56-.45a.61.61,0,0,1,.36-.44C153.25,246.91,153.92,246.81,154.63,246.67Z" transform="translate(-53.47 -116.78)"/><path class="cls-4" d="M147.07,253.43l-.12-.91,1.61-.3c.75-.12.85,0,.82.85Z" transform="translate(-53.47 -116.78)"/><path class="cls-4" d="M153.49,253.75h2.15c.16.91.07,1-.76,1h-.59C153.5,254.73,153.5,254.73,153.49,253.75Z" transform="translate(-53.47 -116.78)"/><path class="cls-4" d="M149.73,249.85a14.14,14.14,0,0,1,1.91-.33c.19,0,.4.39.6.61l-.11.23a16.64,16.64,0,0,1-2,.27c-.18,0-.38-.36-.57-.55Z" transform="translate(-53.47 -116.78)"/><path class="cls-4" d="M152.7,252.47c-.57.1-1.13.19-1.68.3s-.54-.2-.53-.48a.62.62,0,0,1,.37-.45,5.69,5.69,0,0,1,1-.2C152.68,251.51,152.68,251.51,152.7,252.47Z" transform="translate(-53.47 -116.78)"/><path class="cls-4" d="M153.26,249.25l2.17-.24c.25.85.23.88-.56,1-.47,0-.94.11-1.45.17Z" transform="translate(-53.47 -116.78)"/><path class="cls-4" d="M147.91,247.84l.06.87h-2.24V248Z" transform="translate(-53.47 -116.78)"/><path class="cls-4" d="M151,247.41l.18.86-1.76.26-.2-.85Z" transform="translate(-53.47 -116.78)"/><path class="cls-4" d="M155.91,246.58h2l-.05.87-1.8-.13Z" transform="translate(-53.47 -116.78)"/><path class="cls-4" d="M144,248v.76h-1.55l.11-.86Z" transform="translate(-53.47 -116.78)"/><path class="cls-4" d="M173,248.78v.71l-3.23,1a.61.61,0,0,1-.81-.35c-.18-.4.14-.48.41-.59A10,10,0,0,1,173,248.78Z" transform="translate(-53.47 -116.78)"/><path class="cls-4" d="M184,254.78l-.17,1-2.91-.45.2-1Z" transform="translate(-53.47 -116.78)"/><path class="cls-4" d="M189.12,250.7l.06.9-3.43-.33c-.09-.93-.07-.93.74-.82S188.18,250.61,189.12,250.7Z" transform="translate(-53.47 -116.78)"/><path class="cls-4" d="M172.4,253.68l.17,1c-.63.25-1.22.51-1.83.75s-.72-.21-.9-.54c0-.09.22-.44.4-.51C170.92,254.15,171.62,253.94,172.4,253.68Z" transform="translate(-53.47 -116.78)"/><path class="cls-4" d="M189.38,256.55c0-1.06,0-1.09,1-1,.6.1,1.21.13,1.88.2v1Z" transform="translate(-53.47 -116.78)"/><path class="cls-4" d="M188,256.28l-2.89-.28.12-1,2.77.31Z" transform="translate(-53.47 -116.78)"/><path class="cls-4" d="M191.35,253.82h-3c0-.94.1-1,.89-.88a3.13,3.13,0,0,0,1.1,0C191.1,252.78,191.22,252.85,191.35,253.82Z" transform="translate(-53.47 -116.78)"/><path class="cls-4" d="M170.76,246.47c.11.18.28.33.29.49a.58.58,0,0,1-.22.48c-.49.23-1,.38-1.52.6a.58.58,0,0,1-.85-.32c-.21-.43.18-.48.41-.57C169.46,246.91,170.06,246.72,170.76,246.47Z" transform="translate(-53.47 -116.78)"/><path class="cls-4" d="M186.87,252.84v.94l-2.56-.29c-.1-.89-.05-1,.74-.87Z" transform="translate(-53.47 -116.78)"/><path class="cls-4" d="M177.45,254.66l.11-1c.71.12,1.39.21,2.05.37.1,0,.24.37.19.49s-.34.5-.5.49A17.25,17.25,0,0,1,177.45,254.66Z" transform="translate(-53.47 -116.78)"/><path class="cls-4" d="M173.2,252l-.15-.83h2.73V252Z" transform="translate(-53.47 -116.78)"/><path class="cls-4" d="M171.4,251.44c.14.2.35.38.38.57a.66.66,0,0,1-.3.5c-.36.2-.77.32-1.15.49s-.73-.11-.91-.47a.37.37,0,0,1,.15-.35C170.12,251.93,170.7,251.72,171.4,251.44Z" transform="translate(-53.47 -116.78)"/><path class="cls-4" d="M182.74,253.31a16.62,16.62,0,0,1-2-.39c-.64-.2-.18-.59-.07-1l2.26.43Z" transform="translate(-53.47 -116.78)"/><path class="cls-4" d="M184.07,251l-2.5-.26.07-.88,2.43.24Z" transform="translate(-53.47 -116.78)"/><path class="cls-4" d="M175.42,246.45c.76.13,1.47.23,2.16.4.14,0,.35.4.3.49a.71.71,0,0,1-.53.36c-.64-.09-1.28-.27-1.93-.41Z" transform="translate(-53.47 -116.78)"/><path class="cls-4" d="M179.38,251.71c0,.92-.11,1-.9.81a5.74,5.74,0,0,0-.9-.18c-.37,0-.52-.15-.45-.52s.19-.55.61-.43S178.84,251.61,179.38,251.71Z" transform="translate(-53.47 -116.78)"/><path class="cls-4" d="M173.9,253.53h2.25v.92l-2.05.12Z" transform="translate(-53.47 -116.78)"/><path class="cls-4" d="M177.86,250.18l.22-.9c.67.12,1.31.22,1.94.37.11,0,.25.34.22.49s-.28.37-.41.35C179.21,250.43,178.59,250.3,177.86,250.18Z" transform="translate(-53.47 -116.78)"/><path class="cls-4" d="M174.49,249.65v-.9l2.16.3c.09.83,0,.9-.76.79Z" transform="translate(-53.47 -116.78)"/><path class="cls-4" d="M184.36,248.05l-.09.86-2.18-.3.07-.88Z" transform="translate(-53.47 -116.78)"/><path class="cls-4" d="M187.59,249.13a13.61,13.61,0,0,1-1.43,0c-.14,0-.39-.32-.36-.37s.28-.44.46-.47a2,2,0,0,1,1,.06c.22.09.33.42.48.65Z" transform="translate(-53.47 -116.78)"/><path class="cls-4" d="M178.86,248.1c-.05-.68.15-1,.78-.78.33.09.68.13,1.07.21l-.07.87Z" transform="translate(-53.47 -116.78)"/><path class="cls-4" d="M174.08,247.15c-.12,0-.16.06-.2.06h-1.59l-.09-.85h1.88Z" transform="translate(-53.47 -116.78)"/><path class="cls-4" d="M185.39,297.31a5,5,0,0,0,1-.2,4.08,4.08,0,0,0,.82-.58,6.15,6.15,0,0,0-.83-.86c-.17-.12-.47-.06-.71-.1-.7-.12-.92-.44-.88-1.31l5.25.76c-.14-1.4-1.59-3-2.75-3a6.36,6.36,0,0,1-.19-.66,4.71,4.71,0,0,1,0-.75c.29,0,.64-.11.87,0a2.49,2.49,0,0,1,1,.86c.61,1,1.09,2.15,1.67,3.2a1.36,1.36,0,0,0,.77.65c3.16.64,6.33,1.21,9.48,1.86,1.67.35,3.31.83,5,1.24.68.17.54.75.71,1.29a2.58,2.58,0,0,1-.6,0c-.63-.26-.83,0-1,.6-.43,1.88-.93,3.74-1.36,5.47l2.07,3.3-.27.25c-.18-.14-.41-.23-.53-.41a4.42,4.42,0,0,0-2.67-2.2c-.24-.06-.35-.66-.61-1.18l1.52.07c0-.06,0-.14,0-.16a1.39,1.39,0,0,1-.36-1.61c.29-1,.26-1-.77-1.21-.51-.11-1.08-.45-1.27.44,0,.07-.49.15-.54.08-.42-.64-.8-1.32-1.29-2.15,1,.1,1.17-.33,1.19-.92a1.92,1.92,0,0,1,.09-.32c.3-1.43.3-1.41-1.14-1.79-.58-.15-.84,0-.94.59-.3,1.69-.64,3.36-1,5a3.72,3.72,0,0,1-.16.52,1.44,1.44,0,0,1-.8-2.1c-1.15,0-2.33.33-3-.76a20.18,20.18,0,0,1-1.11-2.75,9.84,9.84,0,0,0,1.36-.19,4.54,4.54,0,0,0,.84-.5c-.22-.31-.37-.8-.66-.89a9,9,0,0,0-2.14-.35c-.13,0-.38.31-.42.5-.29,1.65-.53,3.29-.8,4.94,0,.26-.1.51-.17.8a1.42,1.42,0,0,1-.92-2c-1.42.19-2.73.24-3.45-1.47-.38,1.33-1.34,1.34-2.23,1.21a3.18,3.18,0,0,1-1.67-.77,1.75,1.75,0,0,1,.29-2.81,4.32,4.32,0,0,1-.6-.84,1.44,1.44,0,0,1,.28-1.6,1.88,1.88,0,0,1,2-.24,1.31,1.31,0,0,1,.78,1.39.85.85,0,0,1-.74.79c-.2.06-.41.08-.85.17.78.42,1.86.35,1.5,1.58l-1-.11c-.65-.06-1.29.26-1.33.63s.59.71,1.27.68a1.33,1.33,0,0,0,.45-.06c.43-.18,1-.29,1.21-.61S185.32,297.86,185.39,297.31ZM195,297c.14.71.27,1.23.34,1.76s-.17.66-.61.68a3,3,0,0,0-.85.1c-.18.06-.43.23-.46.4s.15.39.3.51a2.57,2.57,0,0,0,2.79-.38,1,1,0,0,0,.14-.37q.18-.87.33-1.74c0-.14,0-.39-.06-.41C196.26,297.37,195.63,297.21,195,297Zm-7.25-1.18c.2.46.32.67.4.89.37,1,.14,1.43-.9,1.6a1.36,1.36,0,0,0-.66.25.54.54,0,0,0-.08.53,1.21,1.21,0,0,0,1.35.44c.63-.14,1.32-.2,1.69-.85,0,0,0,0,0-.06.1-.65.21-1.3.29-1.95,0-.14-.07-.41-.15-.44C189.08,296.1,188.48,296,187.71,295.84Zm16.19,3.58c-.05-.07-.12-.26-.26-.33a6.45,6.45,0,0,0-1-.4c-.67-.22-.81-.13-1,.58-.09.38-.17.76-.25,1.15-.16.85-.16.85.67,1,1.31.27,1.31.27,1.6-1C203.72,300.14,203.8,299.84,203.9,299.42Zm-19.78-4.08c-.41-.26-.67-.55-.91-.53s-.41.37-.61.58c.22.21.43.57.67.59S183.73,295.65,184.12,295.34Z" transform="translate(-53.47 -116.78)"/><path class="cls-4" d="M146.07,295c-1.34.33-1.34.33-1.15,1.71.22,1.56.43,3.13.67,4.69a.94.94,0,0,0,.39.52c.81.59,1.65,1.14,2.46,1.73.16.12.22.35.33.53l-.16.18L148,304c-.66-.35-1.29-.73-2-1a3.34,3.34,0,0,0-1-.05c-.22,0-.51,0-.65-.13-.64-.57-.57-.86.25-1.1l.5-.19c-1.08-.33-1-1.15-1.07-1.87,0-.1-.11-.27-.16-.26a8.43,8.43,0,0,0-1.6.17c-.15,0-.21.45-.3.69,0,.08,0,.17-.05.34a1.7,1.7,0,0,1-.6-.16,12.66,12.66,0,0,1-1.29-1c-.23-.21-.42-.48.09-.67.15-.05.28-.37.27-.55-.05-.59-.2-1.17-.26-1.75s-.28-.48-.64-.41c-1.59.32-1.61.32-1.36,1.93.21,1.39.47,2.77.71,4.15,0,.19.05.38.08.59-1.24-.26-1.36-.39-1.55-1.48a2.6,2.6,0,0,1,0-.26c-.18-1.18-.18-1.16-1.35-.9-.43.09-.52.24-.44.66s-.23.72-.68.45a8.32,8.32,0,0,1-1.21-.91.53.53,0,0,1,.27-1c.81-.19,1.63-.36,2.44-.51.38-.07.53-.22.47-.62-.32-1.92-.07-1.55-1.71-1.28l-2.6.44c-.83.13-.87.19-.7,1,.38,1.73.74,3.47,1.1,5.21,0,.06,0,.12,0,.19-.92,0-1.33-.28-1.5-1.11-.29-1.39-.61-2.78-.88-4.18-.08-.47-.2-.62-.72-.48-1.34.38-1.25.12-.92,1.54s.65,2.86,1,4.3c0,.2.06.41.1.63-1,0-1.33-.24-1.53-1.09-.15-.66-.33-1.32-.45-2-.08-.5-.31-.62-.77-.46s-.74.22-1,.29A8.09,8.09,0,0,1,127.5,303c.28.82-.39,1.36-1,1.83l1.5,1.58-.19.28a3.68,3.68,0,0,1-.83-.28c-.31-.2-.54-.52-.85-.72a3.4,3.4,0,0,0-1.07-.51,1,1,0,0,1-.65-1.64c.12-.15.5-.15.74-.11s.29.24.44.38c.91-.43,1-.9.25-1.47a13.19,13.19,0,0,0-1.8-.91,2.06,2.06,0,0,1-.47-.42c.16-.15.3-.38.48-.43,1-.28,2-.53,3.06-.77.37-.09.59-.16.46-.65s-.36-.54-.76-.44l-3.26.8c-.91.22-1,.18-1.55-.77.38-.12.74-.24,1.11-.32,2.9-.69,5.78-1.46,8.71-2,4.32-.84,8.67-1.55,13-2.3C145.5,293.94,145.75,294.13,146.07,295Zm-2.26,3c-.05-.49-.07-.8-.12-1.1-.22-1.47-.22-1.47-1.69-1.22,0,0-.1,0-.12,0-.14.18-.4.38-.39.55a5.62,5.62,0,0,0,.3,1.93c.33.74,1,.1,1.5.12C143.49,298.26,143.7,298,143.81,298Z" transform="translate(-53.47 -116.78)"/><path class="cls-4" d="M177,294.34l-.26.08c-1.18.07-1.17.07-1.25,1.23-.1,1.56-.22,3.11-.34,4.67a3.73,3.73,0,0,1-.08.44c-1-.37-1.19-.66-1.08-1.65s.07-.92-.83-1H173c-.9-.05-.9-.05-1.05.81-.6.13-1.73-1.07-1.8-1.94.69,0,.81-.41.79-1s.08-.92,0-1.38a.71.71,0,0,0-.4-.53,10,10,0,0,0-1.35-.19c-.5-.06-.74.13-.74.65,0,1.7,0,3.39-.06,5.08,0,.22,0,.43,0,.65-1-.22-1.25-.56-1.24-1.59,0-.3-.1-.84-.21-.86a6.21,6.21,0,0,0-1.61.06c-.08,0-.09.36-.19.5s-.3.33-.44.32a3.59,3.59,0,0,1-1.49-2c.64,0,.78-.39.73-1s0-.93,0-1.38a.75.75,0,0,0-.47-.52c-.68-.06-1.36,0-2,0-.43,0-.59.2-.57.61a14.59,14.59,0,0,1,0,2,11.12,11.12,0,0,1-.34,1.6l-.29.09c.53.49,1.08,1,1.58,1.47.14.14.12.44.18.67-.25-.05-.57,0-.72-.15-.93-.87-1.82-1.79-2.7-2.71a1.34,1.34,0,0,1-.33-.62c-.12-.61.06-.85.67-.79s.68-.15.67-.66c0-1.48,0-1.48-1.5-1.39-.24,0-.48,0-.72,0-1.17,0-1.14,0-1.06,1.21.11,1.65.17,3.3.25,4.94a2.94,2.94,0,0,1,0,.37c-.55-.34-1.27-.36-1.27-1.24,0-.11-.29-.3-.47-.34a13,13,0,0,1-1.41-.23,2.06,2.06,0,0,1-1.42-2c0-.62-.06-1.23-.14-1.84,0-.15-.22-.41-.31-.4-.76.1-.88-.49-1.19-1a3.45,3.45,0,0,1,.54-.11c2.27-.16,4.55-.4,6.83-.45,3.71-.09,7.43-.12,11.15-.06,2.47,0,4.95.27,7.42.44C176.87,293.31,176.74,294,177,294.34Zm-21.92,1.58c-.06-1.94.18-1.8-1.6-1.64,0,0-.1,0-.13,0s-.28.2-.27.3c0,1,.1,1.93.23,2.88.07.44.4.49.81.28C155,297.33,155.34,296.71,155.09,295.92Zm18.13,1.15c.93,0,.94,0,1-.93,0-.42.08-.83.09-1.25,0-.17-.07-.49-.14-.51a11.88,11.88,0,0,0-1.68-.13c-.08,0-.21.3-.23.48-.05.39,0,.78-.07,1.18C172.07,297,172.08,297,173.22,297.07Zm-8.06-1.87c0,1.69-.1,1.49,1.48,1.46a.73.73,0,0,0,.53-.48,11.31,11.31,0,0,0,0-1.84.6.6,0,0,0-.32-.41C165.66,293.56,165.16,293.94,165.16,295.2Z" transform="translate(-53.47 -116.78)"/><path class="cls-4" d="M173.44,301a2.48,2.48,0,0,1,2.44.63,8.24,8.24,0,0,1,1.89,2.32l-.22.23a4.81,4.81,0,0,1-.55-.37c-.52-.43-1-.92-1.54-1.31a2.52,2.52,0,0,0-1-.35C173.68,302,173.49,301.82,173.44,301Z" transform="translate(-53.47 -116.78)"/></svg>