<svg id="Layer_1" data-name="Layer 1" xmlns="http://www.w3.org/2000/svg" viewBox="0 0 643.53 273.75"><defs><style>.cls-1{fill:#e84335;}.cls-2{fill:#f5bc0f;}.cls-3{fill:#3e81ba;}.cls-4{fill:#319f4f;}.cls-5{fill:#767676;}.cls-6{fill:#2f68ac;}.cls-7{fill:#a1c2dd;}.cls-8{fill:#77a5cd;}</style></defs><path class="cls-1" d="M555.8,279.71a29,29,0,1,1-29-29h0A29,29,0,0,1,555.8,279.71Zm-12.7,0c0-10.43-7.55-17.52-16.31-17.52s-16.31,7.12-16.31,17.52,7.55,17.52,16.31,17.52,16.26-7.18,16.26-17.52Z" transform="translate(-119.24 -171.13)"/><path class="cls-2" d="M618.33,279.71a29,29,0,1,1-29-29h0A29,29,0,0,1,618.33,279.71Zm-12.7,0c0-10.43-7.55-17.52-16.31-17.52S573,269.31,573,279.71s7.55,17.52,16.31,17.52S605.63,290.05,605.63,279.71Z" transform="translate(-119.24 -171.13)"/><path class="cls-3" d="M678.31,252.58V304.5c0,21.35-12.6,30.08-27.49,30.08a27.52,27.52,0,0,1-25.63-17.05l11.06-4.6c2,4.71,6.79,10.26,14.56,10.26,9.53,0,15.44-5.88,15.44-17V302h-.45a19.64,19.64,0,0,1-15.23,6.52c-14.45,0-27.7-12.59-27.7-28.8s13.21-29,27.7-29a20,20,0,0,1,15.23,6.6h.45v-4.76h12.06Zm-11.16,27.27c0-10.18-6.8-17.62-15.44-17.62s-16.1,7.44-16.1,17.62,7.34,17.42,16.11,17.42,15.43-7.34,15.43-17.42Z" transform="translate(-119.24 -171.13)"/><path class="cls-4" d="M698.19,222.15V306.9H685.8V222.15Z" transform="translate(-119.24 -171.13)"/><path class="cls-1" d="M746.46,289.27l9.85,6.52a28.75,28.75,0,0,1-24.09,12.81c-16.43,0-28.68-12.7-28.68-28.91,0-17.2,12.37-28.92,27.27-28.92s22.35,11.94,24.77,18.39l1.31,3.29-38.67,16.06c3,5.8,7.56,8.76,14,8.76S743.17,294.09,746.46,289.27Zm-30.34-10.43L742,268.11c-1.42-3.61-5.7-6.13-10.73-6.13a15.86,15.86,0,0,0-15.13,16.56h0v.31Z" transform="translate(-119.24 -171.13)"/><path class="cls-3" d="M450.8,272.23V260h41.35a39.89,39.89,0,0,1,.61,7.4c0,9.21-2.52,20.59-10.63,28.69-7.88,8.21-18,12.59-31.29,12.59-24.68.07-45.54-20.14-45.54-44.93s20.86-44.9,45.56-44.9a42.79,42.79,0,0,1,30.77,12.37L473,239.84a31.27,31.27,0,0,0-22.17-8.72,32.2,32.2,0,0,0-32.2,32.2h0v.39a32.22,32.22,0,0,0,31.81,32.6h.39c11.74,0,18.4-4.71,22.68-9,3.46-3.47,5.75-8.43,6.65-15.19Z" transform="translate(-119.24 -171.13)"/><path class="cls-5" d="M459.78,404.17A20.67,20.67,0,0,1,452.06,421a29.22,29.22,0,0,1-18.9,6.22,28,28,0,0,1-17.45-5.77,29.61,29.61,0,0,1-10.41-15.79l9.79-4a25.23,25.23,0,0,0,2.78,6.52,21,21,0,0,0,4.22,4.88,19,19,0,0,0,5.22,3.22,15.81,15.81,0,0,0,6.11,1.17,17.54,17.54,0,0,0,11.45-3.61,11.71,11.71,0,0,0,4.45-9.62,11.41,11.41,0,0,0-3.67-8.55q-3.42-3.45-12.89-6.68a123.67,123.67,0,0,1-11.89-4.67q-12.67-6.42-12.68-19a19.45,19.45,0,0,1,7-15,25.53,25.53,0,0,1,17.45-6.23,26.87,26.87,0,0,1,15.78,4.67,22,22,0,0,1,8.88,11.43l-9.56,4a14.12,14.12,0,0,0-5.22-7.4,17.06,17.06,0,0,0-19.72.39,9.73,9.73,0,0,0-4.12,8.09,9.38,9.38,0,0,0,3.22,7.12c2.37,2,7.52,4.36,15.45,7.12s13.83,6.08,17.27,10A21.42,21.42,0,0,1,459.78,404.17Z" transform="translate(-119.24 -171.13)"/><path class="cls-5" d="M495.23,427.18A26.87,26.87,0,0,1,475.11,419a29.41,29.41,0,0,1-7.89-20.79q0-12.56,7.89-20.78a26.88,26.88,0,0,1,20.12-8.24,25,25,0,0,1,23.9,15.65l-9.34,3.91q-4.28-10.2-15.22-10.21a15.8,15.8,0,0,0-12.12,5.67,22.12,22.12,0,0,0,0,28,15.82,15.82,0,0,0,12.12,5.67q11.22,0,15.78-10.24l9.13,3.91a24.31,24.31,0,0,1-9.4,11.5A26.53,26.53,0,0,1,495.23,427.18Z" transform="translate(-119.24 -171.13)"/><path class="cls-5" d="M528.36,345.82h10.22v25.12l-.44,7.56h.44a18.43,18.43,0,0,1,7.17-6.68,20.72,20.72,0,0,1,10.06-2.61q10,0,15.39,5.73t5.39,16.28v34.19H566.37V393.17q0-14.67-13-14.67a13.15,13.15,0,0,0-10.51,5.21,18.44,18.44,0,0,0-4.28,12.06v29.64H528.3Z" transform="translate(-119.24 -171.13)"/><path class="cls-5" d="M585.48,398.17q0-12.56,7.9-20.78a26.87,26.87,0,0,1,20.12-8.24,26.52,26.52,0,0,1,20,8.23q8,8.22,8,20.78t-8,20.8a26.47,26.47,0,0,1-20,8.22A26.83,26.83,0,0,1,593.38,419Q585.48,410.74,585.48,398.17Zm10.24,0q0,8.79,5.11,14.23a17.46,17.46,0,0,0,24.68.66c.22-.21.45-.43.66-.66a22.22,22.22,0,0,0,0-28.35,17.22,17.22,0,0,0-24.34-1h0c-.35.32-.68.66-1,1A19.79,19.79,0,0,0,595.72,398.17Z" transform="translate(-119.24 -171.13)"/><path class="cls-5" d="M660.52,345.82v79.54H650.24V345.82Z" transform="translate(-119.24 -171.13)"/><path class="cls-5" d="M693.08,369.15q11.37,0,17.89,6.05t6.52,16.62v33.59h-9.78v-7.56h-.41q-6.33,9.33-17,9.33a21.88,21.88,0,0,1-15-5.33,17,17,0,0,1-6.06-13.34,16.2,16.2,0,0,1,6.4-13.45c4.25-3.34,10-5,17.05-5a30.36,30.36,0,0,1,15,3.33v-2.34a11.7,11.7,0,0,0-4.22-9.06,14.48,14.48,0,0,0-9.81-3.71,15.66,15.66,0,0,0-13.56,7.22l-9-5.67Q678.54,369.15,693.08,369.15Zm-13.23,39.58a8.18,8.18,0,0,0,3.39,6.67,12.41,12.41,0,0,0,8,2.6,16.21,16.21,0,0,0,11.5-4.78A14.86,14.86,0,0,0,707.75,402q-4.77-3.78-13.34-3.78a17.38,17.38,0,0,0-10.43,3,8.93,8.93,0,0,0-4.13,7.52Z" transform="translate(-119.24 -171.13)"/><path class="cls-5" d="M739.3,425.41H729.1V370.94h9.8v8.89h.4a14.89,14.89,0,0,1,6.39-7.39,17.8,17.8,0,0,1,9.51-3.06,19.47,19.47,0,0,1,7.56,1.31l-3.08,9.93a16.92,16.92,0,0,0-6-.78,13.3,13.3,0,0,0-10.07,4.67,15.71,15.71,0,0,0-4.28,10.9Z" transform="translate(-119.24 -171.13)"/><path class="cls-3" d="M256.11,390.94,119.24,279.5,256.11,171.12Z" transform="translate(-119.24 -171.13)"/><path class="cls-6" d="M256.11,390.94,393,279.5,256.11,171.12Z" transform="translate(-119.24 -171.13)"/><circle class="cls-7" cx="136.87" cy="193.91" r="79.84"/><path class="cls-8" d="M184,330.81a79.88,79.88,0,0,1,144.32,0Z" transform="translate(-119.24 -171.13)"/></svg>